<svg width="17" height="22" viewBox="0 0 17 22" fill="none" xmlns="http://www.w3.org/2000/svg">
<path d="M8.3125 17.3187V16.6537L7.65227 16.5741C4.37842 16.1794 1.80203 13.5162 1.53795 10.2031H1.82013C2.10577 13.6423 4.98695 16.3438 8.5 16.3438C12.0131 16.3438 14.8942 13.6423 15.1799 10.2031H15.462C15.1957 13.5448 12.5766 16.224 9.26256 16.5849L8.59375 16.6577V17.3305V19.7188V20.4688H9.34375H12.6719V20.75H4.32812V20.4688H7.5625H8.3125V19.7188V17.3187ZM11.7344 9.6875C11.7344 11.4399 10.295 12.875 8.5 12.875C6.70503 12.875 5.26562 11.4399 5.26562 9.6875V4.4375C5.26562 2.68507 6.70503 1.25 8.5 1.25C10.295 1.25 11.7344 2.68507 11.7344 4.4375V9.6875ZM8.5 1.53125C6.87788 1.53125 5.54688 2.82428 5.54688 4.4375V9.6875C5.54688 11.3007 6.87788 12.5938 8.5 12.5938C10.1221 12.5938 11.4531 11.3007 11.4531 9.6875V4.4375C11.4531 2.82428 10.1221 1.53125 8.5 1.53125Z" stroke="#686868" stroke-width="1.5"/>
</svg>
