<svg width="18" height="25" viewBox="0 0 18 25" fill="none" xmlns="http://www.w3.org/2000/svg">
<path d="M15.8143 11.8421C15.8143 15.7895 12.5486 18.5526 9 18.5526C5.45143 18.5526 2.18571 15.7895 2.18571 11.8421H0C0 16.3289 3.49714 20.0395 7.71429 20.6842V25H10.2857V20.6842C14.5029 20.0395 18 16.3289 18 11.8421M7.45714 3.81579C7.45714 2.94737 8.15143 2.23684 9 2.23684C9.84857 2.23684 10.5429 2.94737 10.5429 3.81579L10.53 11.9737C10.53 12.8421 9.84857 13.5526 9 13.5526C8.15143 13.5526 7.45714 12.8421 7.45714 11.9737M9 15.7895C10.023 15.7895 11.0041 15.3736 11.7274 14.6333C12.4508 13.893 12.8571 12.889 12.8571 11.8421V3.94737C12.8571 2.90046 12.4508 1.89643 11.7274 1.15616C11.0041 0.415882 10.023 0 9 0C7.97702 0 6.99594 0.415882 6.27259 1.15616C5.54923 1.89643 5.14286 2.90046 5.14286 3.94737V11.8421C5.14286 12.889 5.54923 13.893 6.27259 14.6333C6.99594 15.3736 7.97702 15.7895 9 15.7895Z" fill="black"/>
</svg>
