<svg width="23" height="22" viewBox="0 0 23 22" fill="none" xmlns="http://www.w3.org/2000/svg">
<g clip-path="url(#clip0_801_16711)">
<path d="M2.3335 10.9998C2.3335 7.54309 2.3335 5.81425 3.40783 4.74084C4.48125 3.6665 6.21008 3.6665 9.66683 3.6665H13.3335C16.7902 3.6665 18.5191 3.6665 19.5925 4.74084C20.6668 5.81425 20.6668 7.54309 20.6668 10.9998C20.6668 14.4566 20.6668 16.1854 19.5925 17.2588C18.5191 18.3332 16.7902 18.3332 13.3335 18.3332H9.66683C6.21008 18.3332 4.48125 18.3332 3.40783 17.2588C2.3335 16.1854 2.3335 14.4566 2.3335 10.9998Z" stroke="#686868" stroke-width="1.5"/>
<path d="M9.66683 14.6665H6.00016M13.3335 14.6665H11.9585M2.3335 9.1665H20.6668" stroke="#686868" stroke-width="1.5" stroke-linecap="round"/>
<line x1="21.8536" y1="3.35355" x2="3.85355" y2="21.3536" stroke="#FF3232"/>
</g>
<defs>
<clipPath id="clip0_801_16711">
<rect width="22" height="22" fill="white" transform="translate(0.5)"/>
</clipPath>
</defs>
</svg>
