<svg width="20" height="21" viewBox="0 0 20 21" fill="none" xmlns="http://www.w3.org/2000/svg">
<path d="M18.2295 7.76188L18.229 7.76298L17.706 8.95698L17.395 9.66711L18.115 9.95447L18.9539 10.2893L17.5111 13.8961L16.5064 13.4945L15.8331 13.2253L15.5414 13.8892L15.2294 14.5992L15.2293 14.5994C15.2028 14.6598 15.1535 14.7073 15.0921 14.7315C15.0308 14.7557 14.9624 14.7547 14.9018 14.7287L14.9014 14.7285L9.69636 12.4985L8.99011 12.1959L8.70467 12.9093L7.48267 15.9633L7.48214 15.9646C7.29189 16.4427 6.83932 16.7499 6.323 16.7499H2H1.25V17.4999V19.7499H0.75V13.2499H1.25V15.4999V16.2499H2H6.323H6.83077L7.01936 15.7784L8.25936 12.6784L8.53118 11.9989L7.85847 11.7105L1.82058 9.1226C1.82054 9.12258 1.82051 9.12256 1.82047 9.12255C1.51598 8.99195 1.27574 8.74589 1.15245 8.43837C1.02922 8.131 1.0329 7.78731 1.16265 7.48265C1.16273 7.48247 1.16281 7.48229 1.16288 7.48211L3.37229 2.3295C3.37229 2.32949 3.3723 2.32948 3.3723 2.32946C3.63364 1.72015 4.41408 1.40905 5.02581 1.67832C5.02582 1.67833 5.02583 1.67833 5.02583 1.67833L18.1008 7.43432L18.102 7.43485C18.1319 7.44794 18.1589 7.46678 18.1814 7.4903C18.204 7.51382 18.2217 7.54156 18.2336 7.57194C18.2454 7.6023 18.2511 7.63471 18.2504 7.66731C18.2497 7.6999 18.2426 7.73204 18.2295 7.76188ZM14.1866 13.8793L14.8699 14.1721L15.1687 13.4914L17.3697 8.47841L17.6709 7.79235L16.9852 7.49047L4.82318 2.13647L4.12999 1.83131L3.83164 2.52746L1.62364 7.67946L1.3282 8.36883L2.01757 8.66426L14.1866 13.8793Z" stroke="#686868" stroke-width="1.5"/>
</svg>
