<svg width="21" height="13" viewBox="0 0 21 13" fill="none" xmlns="http://www.w3.org/2000/svg">
<path d="M4.40555 11.9653L4.3173 12.1107C4.24052 12.0641 4.16685 12.013 4.09678 11.9576C3.84179 11.756 3.63439 11.498 3.49782 11.1986C3.44805 11.0895 3.40864 10.9769 3.3798 10.8621C3.34668 10.7303 3.32752 10.5955 3.32266 10.4599L3.3136 10.4924H2.74429H1.92857H1.21429H1.17857V10.3909V10.3327V9.74237V5.27186C1.17857 5.27181 1.17857 5.27176 1.17857 5.27171C1.17857 5.27155 1.17857 5.27139 1.17857 5.27123C1.1786 4.75486 1.33729 4.25574 1.62686 3.82935C1.6269 3.82928 1.62695 3.82922 1.62699 3.82915C1.65047 3.79459 1.67481 3.7605 1.69999 3.72692L1.69999 3.72692L3.56195 1.24422L3.56216 1.24394L3.63594 1.14557C3.63605 1.14541 3.63617 1.14526 3.63629 1.1451C3.63633 1.14504 3.63638 1.14498 3.63642 1.14492C3.75583 0.985536 3.90619 0.855588 4.07477 0.759261C4.10524 0.741853 4.1363 0.725542 4.16789 0.710354C4.37427 0.611103 4.60029 0.560873 4.82698 0.560834C4.827 0.560834 4.82703 0.560834 4.82705 0.560834H4.82714H10.5374L12.1957 0.725167C11.995 0.502317 11.7421 0.322846 11.4555 0.19978C11.1688 0.0767136 10.8556 0.0131407 10.5386 0.0136752H4.82714C4.47783 0.0135687 4.1338 0.0910535 3.82504 0.239373C3.51627 0.387693 3.25216 0.602344 3.05571 0.864612L1.11857 3.4479C0.71511 3.98553 0.499539 4.62113 0.5 5.27171V10.3909C0.5 10.563 0.575256 10.7279 0.70921 10.8496C0.843165 10.9712 1.02485 11.0395 1.21429 11.0395H2.74429C2.89967 11.5962 3.25502 12.0899 3.75413 12.4425C4.25323 12.7952 4.86759 12.9866 5.5 12.9866C6.13241 12.9866 6.74677 12.7952 7.24587 12.4425C7.74498 12.0899 8.10033 11.5962 8.25571 11.0395H12.7443C12.8997 11.5962 13.255 12.0899 13.7541 12.4425C14.2532 12.7952 14.8676 12.9866 15.5 12.9866C16.1324 12.9866 16.7468 12.7952 17.2459 12.4425C17.745 12.0899 18.1003 11.5962 18.2557 11.0395H19.7857C19.9752 11.0395 20.1568 10.9712 20.2908 10.8496C20.4247 10.7279 20.5 10.563 20.5 10.3909V5.76982M4.40555 11.9653L4.3173 12.1107C4.67294 12.3265 5.08434 12.4381 5.5 12.4381L5.50102 12.4381C6.00775 12.4374 6.50601 12.2708 6.90276 11.9569C6.9407 11.9269 6.97771 11.8955 7.0137 11.8629C7.31101 11.5929 7.52316 11.2458 7.61987 10.862C7.65274 10.7316 7.67228 10.597 7.67728 10.4597L7.6864 10.4924H8.25571H12.7443H13.3136L13.3227 10.4599C13.3275 10.5955 13.3467 10.7303 13.3798 10.8621C13.4086 10.9769 13.4481 11.0895 13.4978 11.1986C13.6344 11.498 13.8418 11.756 14.0968 11.9576C14.1669 12.013 14.2405 12.0641 14.3173 12.1107L14.4055 11.9653M4.40555 11.9653C4.32963 11.9244 4.25659 11.8792 4.18692 11.83C3.9249 11.6448 3.72395 11.4122 3.5918 11.1557C3.5389 11.0531 3.49703 10.9466 3.46667 10.8379L3.34191 10.3909L3.4521 9.9962L3.46667 9.94402C3.56276 9.59978 3.77426 9.27847 4.08547 9.02837C4.11819 9.00208 4.15201 8.97657 4.18692 8.9519C4.4577 8.76058 4.77948 8.63059 5.12315 8.5753C5.2464 8.55547 5.37246 8.54525 5.5 8.54525C5.75802 8.54525 6.01 8.58709 6.24485 8.66567C6.44978 8.73423 6.64165 8.83078 6.81308 8.9519C6.9584 9.05458 7.08493 9.17188 7.19136 9.29974C7.35365 9.49471 7.4692 9.71426 7.53333 9.94402L7.65809 10.3909L7.65775 10.3921L7.53333 10.8379C7.43723 11.1821 7.22572 11.5035 6.91447 11.7536C6.88177 11.7799 6.84796 11.8053 6.81308 11.83C6.44538 12.0898 5.98364 12.2365 5.50075 12.2366C5.5005 12.2366 5.50025 12.2366 5.5 12.2366C5.10833 12.2366 4.73055 12.1402 4.40555 11.9653ZM14.4055 11.9653L14.3173 12.1107C14.6729 12.3265 15.0843 12.4381 15.5 12.4381H15.5007C16.0076 12.4376 16.506 12.2711 16.9029 11.9571C16.9409 11.9271 16.9779 11.8958 17.0139 11.8631C17.3112 11.5931 17.5234 11.2459 17.62 10.8621C17.6528 10.7317 17.6723 10.597 17.6773 10.4598L17.6864 10.4924H18.2557H19.0714H19.7857H19.8214V10.3909V10.3326V9.74237V6.22577V5.82169V5.79034V5.78985V5.76992L19.8279 5.76992H19.8281L19.8883 5.76991L20.5 5.76982M14.4055 11.9653C14.3296 11.9244 14.2566 11.8792 14.1869 11.83C13.9249 11.6448 13.724 11.4122 13.5918 11.1557C13.5389 11.0531 13.497 10.9466 13.4667 10.8379L13.3419 10.3909L13.4521 9.9962L13.4667 9.94402C13.5628 9.59978 13.7743 9.27847 14.0855 9.02837C14.1182 9.00208 14.152 8.97657 14.1869 8.9519C14.4577 8.76058 14.7795 8.63059 15.1232 8.5753C15.2464 8.55547 15.3725 8.54525 15.5 8.54525C15.758 8.54525 16.01 8.58709 16.2449 8.66567C16.4498 8.73423 16.6416 8.83078 16.8131 8.9519C16.9584 9.05458 17.0849 9.17188 17.1914 9.29974C17.3536 9.49472 17.4692 9.71426 17.5333 9.94402L17.6581 10.3909L17.6579 10.3917L17.5333 10.8379C17.4372 11.1821 17.2257 11.5035 16.9145 11.7536C16.8818 11.7798 16.848 11.8053 16.8131 11.83C16.4453 12.0898 15.9835 12.2365 15.5005 12.2366C15.5003 12.2366 15.5002 12.2366 15.5 12.2366C15.1083 12.2366 14.7306 12.1402 14.4055 11.9653ZM20.5 5.76982C20.5 5.63626 20.4545 5.50596 20.3699 5.39673C20.2853 5.28749 20.1656 5.20465 20.0271 5.1595L19.8214 5.76982H19.828H19.8281H19.8884H20.5ZM17.6773 10.322L17.6864 10.2895H18.2557H19.0714H19.75V9.74237V6.22577L17.6773 10.322ZM17.6773 10.322C17.6725 10.1853 17.6531 10.0506 17.6202 9.91976C17.5576 9.67052 17.4459 9.4351 17.2919 9.22577C17.1803 9.07418 17.0492 8.93971 16.9032 8.82431C16.7251 8.68346 16.5247 8.57102 16.3107 8.49054C16.0512 8.39294 15.7759 8.34379 15.5 8.34379C15.3622 8.34379 15.2242 8.35605 15.088 8.38065C14.7267 8.44592 14.3843 8.59693 14.0968 8.82431C14.0587 8.85436 14.0217 8.88576 13.9857 8.91846C13.691 9.18607 13.4772 9.53187 13.3798 9.91977C13.375 9.93887 13.3705 9.95808 13.3663 9.97739C13.3412 10.0916 13.3268 10.2068 13.3227 10.322L13.3136 10.2895H12.7443H8.25571H7.6864L7.67734 10.322C7.67246 10.1853 7.65309 10.0506 7.62021 9.91976C7.55759 9.67052 7.44593 9.4351 7.29189 9.22577C7.18034 9.07418 7.04923 8.93971 6.90324 8.82431C6.72506 8.68346 6.52472 8.57102 6.31072 8.49054C6.05123 8.39294 5.77593 8.34379 5.5 8.34379C5.3622 8.34379 5.22423 8.35605 5.088 8.38065C4.72665 8.44592 4.38434 8.59693 4.09676 8.82431C4.05875 8.85436 4.02169 8.88576 3.98567 8.91846C3.69095 9.18607 3.47721 9.53187 3.3798 9.91977C3.375 9.93887 3.37048 9.95808 3.36625 9.97739C3.34124 10.0916 3.32678 10.2068 3.32266 10.322L3.3136 10.2895H2.74429H1.92857H1.25V9.74237V5.27184L1.92857 5.27171M17.6773 10.322L13.9814 3.89829L13.5129 4.30922M1.92857 5.27171V8.99237V9.74237H2.67857H2.74429C2.89967 9.18573 3.25502 8.69203 3.75413 8.33938C4.25323 7.98672 4.86759 7.79525 5.5 7.79525C6.13241 7.79525 6.74677 7.98672 7.24587 8.33938C7.74498 8.69203 8.10033 9.18573 8.25571 9.74237H12.7443C12.8997 9.18573 13.255 8.69203 13.7541 8.33938C14.2532 7.98672 14.8676 7.79525 15.5 7.79525C16.1324 7.79525 16.7468 7.98672 17.2459 8.33938C17.745 8.69203 18.1003 9.18573 18.2557 9.74237H18.3214H19.0714V8.99237V6.22577L13.83 4.51547C13.7053 4.47477 13.5954 4.40335 13.5129 4.30922M1.92857 5.27171C1.92849 4.88119 2.05792 4.49969 2.3 4.17691L4.23643 1.59491L1.25 5.27171H1.92857ZM13.5129 4.30922L13.9813 3.89823L10.5386 1.31083C10.6425 1.31046 10.7453 1.33084 10.8396 1.37051C10.9339 1.41019 11.0174 1.46819 11.0843 1.54043L13.5129 4.30922ZM4.49293 1.38626C4.59589 1.33674 4.71063 1.31085 4.82714 1.31083L4.47418 1.34726L4.49293 1.38626Z" stroke="#686868" stroke-width="1.5"/>
</svg>
