<svg width="27" height="10" viewBox="0 0 27 10" fill="none" xmlns="http://www.w3.org/2000/svg">
<path d="M26.0239 4.11904H21.3529C21.1169 2.9618 20.4834 1.92359 19.5623 1.18434C18.6412 0.44509 17.4905 0.0513751 16.3096 0.0714235H9.95485C8.77671 0.0551816 7.62984 0.450636 6.71208 1.18957C5.79433 1.9285 5.16325 2.96457 4.92771 4.11904H0.119141V5.73809H4.91962C5.15103 6.89613 5.7821 7.93599 6.70253 8.67588C7.62295 9.41577 8.77414 9.8086 9.95485 9.78571H16.3096C17.4903 9.8086 18.6415 9.41577 19.5619 8.67588C20.4824 7.93599 21.1134 6.89613 21.3449 5.73809H26.0239V4.11904ZM12.3268 8.16666H9.95485C9.06348 8.19733 8.19619 7.87398 7.54245 7.26726C6.88871 6.66054 6.50164 5.81975 6.46581 4.92857C6.50164 4.03738 6.88871 3.1966 7.54245 2.58988C8.19619 1.98315 9.06348 1.65981 9.95485 1.69047H12.3349L12.3268 8.16666ZM16.3096 8.16666H13.881V1.69047H16.3096C17.201 1.65981 18.0683 1.98315 18.722 2.58988C19.3758 3.1966 19.7628 4.03738 19.7987 4.92857C19.7628 5.81975 19.3758 6.66054 18.722 7.26726C18.0683 7.87398 17.201 8.19733 16.3096 8.16666Z" fill="#616161"/>
</svg>
