<svg width="19" height="18" viewBox="0 0 19 18" fill="none" xmlns="http://www.w3.org/2000/svg">
<path d="M1.5 2C1.5 1.73478 1.60536 1.48043 1.79289 1.29289C1.98043 1.10536 2.23478 1 2.5 1H6.5C6.76522 1 7.01957 1.10536 7.20711 1.29289C7.39464 1.48043 7.5 1.73478 7.5 2V7C7.5 7.26522 7.39464 7.51957 7.20711 7.70711C7.01957 7.89464 6.76522 8 6.5 8H2.5C2.23478 8 1.98043 7.89464 1.79289 7.70711C1.60536 7.51957 1.5 7.26522 1.5 7V2ZM11.5 2C11.5 1.73478 11.6054 1.48043 11.7929 1.29289C11.9804 1.10536 12.2348 1 12.5 1H16.5C16.7652 1 17.0196 1.10536 17.2071 1.29289C17.3946 1.48043 17.5 1.73478 17.5 2V4C17.5 4.26522 17.3946 4.51957 17.2071 4.70711C17.0196 4.89464 16.7652 5 16.5 5H12.5C12.2348 5 11.9804 4.89464 11.7929 4.70711C11.6054 4.51957 11.5 4.26522 11.5 4V2ZM1.5 13C1.5 12.7348 1.60536 12.4804 1.79289 12.2929C1.98043 12.1054 2.23478 12 2.5 12H6.5C6.76522 12 7.01957 12.1054 7.20711 12.2929C7.39464 12.4804 7.5 12.7348 7.5 13V16C7.5 16.2652 7.39464 16.5196 7.20711 16.7071C7.01957 16.8946 6.76522 17 6.5 17H2.5C2.23478 17 1.98043 16.8946 1.79289 16.7071C1.60536 16.5196 1.5 16.2652 1.5 16V13ZM11.5 10C11.5 9.73478 11.6054 9.48043 11.7929 9.29289C11.9804 9.10536 12.2348 9 12.5 9H16.5C16.7652 9 17.0196 9.10536 17.2071 9.29289C17.3946 9.48043 17.5 9.73478 17.5 10V16C17.5 16.2652 17.3946 16.5196 17.2071 16.7071C17.0196 16.8946 16.7652 17 16.5 17H12.5C12.2348 17 11.9804 16.8946 11.7929 16.7071C11.6054 16.5196 11.5 16.2652 11.5 16V10Z" stroke="#686868" stroke-width="1.5"/>
</svg>
