<svg width="21" height="19" viewBox="0 0 21 19" fill="none" xmlns="http://www.w3.org/2000/svg">
<path d="M3.5 5.25H4.25V4.5V2.5C4.25 1.81121 4.81121 1.25 5.5 1.25H18.5C19.1888 1.25 19.75 1.81121 19.75 2.5V14.5C19.75 15.1888 19.1888 15.75 18.5 15.75H10.5H9.75V16.5C9.75 17.1888 9.18879 17.75 8.5 17.75H2.5C1.81121 17.75 1.25 17.1888 1.25 16.5V6.5C1.25 5.81121 1.81121 5.25 2.5 5.25H3.5ZM8.497 17.25H9.24677L9.247 16.5002L9.25 6.50023L9.25023 5.75H8.5H2.5H1.75V6.5V16.5V17.25H2.5H8.497ZM18.497 15.25H19.2468L19.247 14.5002L19.25 2.50019L19.2502 1.75H18.5H5.5H4.75V2.5V4.5V5.25H5.5H8.5C9.18879 5.25 9.75 5.81121 9.75 6.5V14.5V15.25H10.5H18.497Z" stroke="#686868" stroke-width="1.5"/>
</svg>
