<svg width="22" height="18" viewBox="0 0 22 18" fill="none" xmlns="http://www.w3.org/2000/svg">
<path d="M16.4 16.25H17.25V16.75H4.75V16.25H5.6H6.15782L6.31829 15.7158L8.2925 9.14341C8.37922 8.863 8.52962 8.65548 8.75171 8.49531C8.98535 8.32681 9.22775 8.24958 9.49884 8.25H9.5H12.5C12.7724 8.25 13.0156 8.32774 13.2493 8.49631C13.4715 8.65658 13.6214 8.86373 13.7074 9.14305C13.7076 9.14365 13.7078 9.14426 13.708 9.14487L15.6817 15.7158L15.8422 16.25H16.4ZM6.98163 15.2845L6.69198 16.25H7.7H14.3H15.308L15.0184 15.2845L13.2184 9.28449L13.058 8.75H12.5H9.5H8.94198L8.78163 9.28449L6.98163 15.2845ZM10.75 4.75V1.25H11.25V4.75H10.75ZM18.4162 4.42687L15.9481 6.91246L15.5875 6.55188L18.0731 4.08379L18.4162 4.42687ZM17.75 11.75V11.25H21.25V11.75H17.75ZM3.92687 4.08379L6.41246 6.55188L6.05188 6.91246L3.58379 4.42687L3.92687 4.08379ZM0.75 11.75V11.25H4.25V11.75H0.75Z" fill="#686868" stroke="#686868" stroke-width="1.5"/>
</svg>
