<svg width="25" height="24" viewBox="0 0 25 24" fill="none" xmlns="http://www.w3.org/2000/svg">
<path d="M19.75 2.4V3.15H20.5H21.8333C22.9729 3.15 23.75 3.96429 23.75 4.8V21.6C23.75 22.4454 22.9754 23.25 21.8333 23.25H3.16667C2.03537 23.25 1.25 22.4431 1.25 21.6V4.8C1.25 3.96659 2.03793 3.15 3.16667 3.15H4.5H5.25V2.4V0.75H6.41667V2.4V3.15H7.16667H17.8333H18.5833V2.4V0.75H19.75V2.4ZM21.8333 22.35H22.5833V21.6V9.6V8.85H21.8333H3.16667H2.41667V9.6V21.6V22.35H3.16667H21.8333ZM2.41667 7.2V7.95H3.16667H21.8333H22.5833V7.2V4.8V4.05H21.8333H3.16667H2.41667V4.8V7.2ZM10.5804 18.7434L7.47447 15.948L7.76667 15.685L10.0783 17.7655L10.58 18.217L11.0817 17.7655L17.0757 12.3709L17.3754 12.6382L10.5804 18.7434Z" stroke="#686868" stroke-width="1.5"/>
</svg>
