<svg width="19" height="18" viewBox="0 0 19 18" fill="none" xmlns="http://www.w3.org/2000/svg">
<path d="M11.4177 1.8501H7.51096L5.5576 4.6446H3.21357C2.79912 4.6446 2.40164 4.84088 2.10858 5.19026C1.81552 5.53964 1.65088 6.0135 1.65088 6.5076V14.8911C1.65088 15.3852 1.81552 15.8591 2.10858 16.2085C2.40164 16.5578 2.79912 16.7541 3.21357 16.7541H15.7151C16.1295 16.7541 16.527 16.5578 16.82 16.2085C17.1131 15.8591 17.2778 15.3852 17.2778 14.8911V6.5076C17.2778 6.0135 17.1131 5.53964 16.82 5.19026C16.527 4.84088 16.1295 4.6446 15.7151 4.6446H13.371L11.4177 1.8501Z" stroke="#353535" stroke-width="1.86301" stroke-linecap="round" stroke-linejoin="round"/>
<path d="M9.46415 13.0281C10.7587 13.0281 11.8082 11.777 11.8082 10.2336C11.8082 8.69023 10.7587 7.43909 9.46415 7.43909C8.16958 7.43909 7.12012 8.69023 7.12012 10.2336C7.12012 11.777 8.16958 13.0281 9.46415 13.0281Z" stroke="#353535" stroke-width="1.86301" stroke-linecap="round" stroke-linejoin="round"/>
</svg>
