<svg width="25" height="24" viewBox="0 0 25 24" fill="none" xmlns="http://www.w3.org/2000/svg">
<mask id="path-1-inside-1_801_17208" fill="white">
<path d="M22.3182 16.8H2.68182V2.4H22.3182M22.3182 0H2.68182C1.47091 0 0.5 1.068 0.5 2.4V16.8C0.5 17.4365 0.72987 18.047 1.13904 18.4971C1.54821 18.9471 2.10316 19.2 2.68182 19.2H10.3182V21.6H8.13636V24H16.8636V21.6H14.6818V19.2H22.3182C22.8968 19.2 23.4518 18.9471 23.861 18.4971C24.2701 18.047 24.5 17.4365 24.5 16.8V2.4C24.5 1.068 23.5182 0 22.3182 0Z"/>
</mask>
<path d="M2.68182 16.8H1.18182V18.3H2.68182V16.8ZM2.68182 2.4V0.9H1.18182V2.4H2.68182ZM0.5 16.8H-1H0.5ZM10.3182 19.2H11.8182V17.7H10.3182V19.2ZM10.3182 21.6V23.1H11.8182V21.6H10.3182ZM8.13636 21.6V20.1H6.63636V21.6H8.13636ZM8.13636 24H6.63636V25.5H8.13636V24ZM16.8636 24V25.5H18.3636V24H16.8636ZM16.8636 21.6H18.3636V20.1H16.8636V21.6ZM14.6818 21.6H13.1818V23.1H14.6818V21.6ZM14.6818 19.2V17.7H13.1818V19.2H14.6818ZM22.3182 15.3H2.68182V18.3H22.3182V15.3ZM4.18182 16.8V2.4H1.18182V16.8H4.18182ZM2.68182 3.9H22.3182V0.9H2.68182V3.9ZM22.3182 -1.5H2.68182V1.5H22.3182V-1.5ZM2.68182 -1.5C0.511149 -1.5 -1 0.377309 -1 2.4H2C2 1.75869 2.43067 1.5 2.68182 1.5V-1.5ZM-1 2.4V16.8H2V2.4H-1ZM-1 16.8C-1 17.7906 -0.643556 18.7661 0.0291297 19.5061L2.24895 17.488C2.1033 17.3278 2 17.0824 2 16.8H-1ZM0.0291297 19.5061C0.70614 20.2508 1.6567 20.7 2.68182 20.7V17.7C2.54962 17.7 2.39028 17.6435 2.24895 17.488L0.0291297 19.5061ZM2.68182 20.7H10.3182V17.7H2.68182V20.7ZM8.81818 19.2V21.6H11.8182V19.2H8.81818ZM10.3182 20.1H8.13636V23.1H10.3182V20.1ZM6.63636 21.6V24H9.63636V21.6H6.63636ZM8.13636 25.5H16.8636V22.5H8.13636V25.5ZM18.3636 24V21.6H15.3636V24H18.3636ZM16.8636 20.1H14.6818V23.1H16.8636V20.1ZM16.1818 21.6V19.2H13.1818V21.6H16.1818ZM14.6818 20.7H22.3182V17.7H14.6818V20.7ZM22.3182 20.7C23.3433 20.7 24.2939 20.2508 24.9709 19.5061L22.7511 17.488C22.6097 17.6435 22.4504 17.7 22.3182 17.7V20.7ZM24.9709 19.5061C25.6436 18.7661 26 17.7906 26 16.8H23C23 17.0824 22.8967 17.3278 22.7511 17.488L24.9709 19.5061ZM26 16.8V2.4H23V16.8H26ZM26 2.4C26 0.372223 24.4733 -1.5 22.3182 -1.5V1.5C22.5631 1.5 23 1.76378 23 2.4H26Z" fill="#686868" mask="url(#path-1-inside-1_801_17208)"/>
</svg>
