<svg width="8" height="12" viewBox="0 0 8 12" fill="none" xmlns="http://www.w3.org/2000/svg">
<path d="M7.02857 5.72632C7.02857 7.36842 5.57714 8.5179 4 8.5179C2.42286 8.5179 0.971429 7.36842 0.971429 5.72632H0C0 7.59284 1.55429 9.13642 3.42857 9.40463V11.2H4.57143V9.40463C6.44571 9.13642 8 7.59284 8 5.72632M3.31429 2.38737C3.31429 2.02611 3.62286 1.73053 4 1.73053C4.37714 1.73053 4.68571 2.02611 4.68571 2.38737L4.68 5.78106C4.68 6.14232 4.37714 6.4379 4 6.4379C3.62286 6.4379 3.31429 6.14232 3.31429 5.78106M4 7.36842C4.45466 7.36842 4.89069 7.19542 5.21218 6.88746C5.53367 6.57951 5.71429 6.16183 5.71429 5.72632V2.44211C5.71429 2.00659 5.53367 1.58892 5.21218 1.28096C4.89069 0.97301 4.45466 0.800003 4 0.800003C3.54534 0.800003 3.10931 0.97301 2.78782 1.28096C2.46633 1.58892 2.28571 2.00659 2.28571 2.44211V5.72632C2.28571 6.16183 2.46633 6.57951 2.78782 6.88746C3.10931 7.19542 3.54534 7.36842 4 7.36842Z" fill="#676767"/>
</svg>
