<svg width="22" height="19" viewBox="0 0 22 19" fill="none" xmlns="http://www.w3.org/2000/svg">
<path d="M1 9.5C1 5.729 1 3.843 2.172 2.672C3.343 1.5 5.229 1.5 9 1.5H13C16.771 1.5 18.657 1.5 19.828 2.672C21 3.843 21 5.729 21 9.5C21 13.271 21 15.157 19.828 16.328C18.657 17.5 16.771 17.5 13 17.5H9C5.229 17.5 3.343 17.5 2.172 16.328C1 15.157 1 13.271 1 9.5Z" stroke="#686868" stroke-width="1.5"/>
<path d="M9 13.5H5H9ZM13 13.5H11.5H13ZM1 7.5H21H1Z" fill="#686868"/>
<path d="M9 13.5H5M13 13.5H11.5M1 7.5H21" stroke="#686868" stroke-width="1.5" stroke-linecap="round"/>
</svg>
