<svg width="25" height="24" viewBox="0 0 25 24" fill="none" xmlns="http://www.w3.org/2000/svg">
<path d="M18.5 18C20.1569 18 21.5 16.6569 21.5 15C21.5 13.3431 20.1569 12 18.5 12C16.8431 12 15.5 13.3431 15.5 15C15.5 16.6569 16.8431 18 18.5 18Z" stroke="#686868" stroke-width="1.5" stroke-linecap="round" stroke-linejoin="round"/>
<path d="M9.5 11C11.7091 11 13.5 9.20914 13.5 7C13.5 4.79086 11.7091 3 9.5 3C7.29086 3 5.5 4.79086 5.5 7C5.5 9.20914 7.29086 11 9.5 11Z" stroke="#686868" stroke-width="2" stroke-linecap="round" stroke-linejoin="round"/>
<path d="M10.5 14.7H6.5C5.43913 14.7 4.42172 15.1214 3.67157 15.8716C2.92143 16.6217 2.5 17.6391 2.5 18.7V20.7M22.2 16.1L21.3 15.8M15.7 13.6L14.8 13.3M17.1 18.4L17.4 17.5M19.6 11.9L19.9 11M20.1 18.4L19.7 17.4M17.3 12L16.9 11M14.8 16.3L15.8 15.9M21.2 13.5L22.2 13.1" stroke="#686868" stroke-width="2" stroke-linecap="round" stroke-linejoin="round"/>
</svg>
