<svg width="25" height="24" viewBox="0 0 25 24" fill="none" xmlns="http://www.w3.org/2000/svg">
<path d="M12.5008 16.703L8.5448 11.1166L8.52603 11.0901L8.50503 11.0653C7.84926 10.291 7.42696 9.34638 7.2873 8.34139C7.17801 7.55493 7.24533 6.75684 7.48096 6.00427C7.32426 6.51762 7.24501 7.05634 7.25024 7.60294C7.25649 8.86874 7.70781 10.0916 8.52455 11.0577L11.8875 15.8225L12.4983 16.688L13.1117 15.8242L16.5721 10.9513C17.3287 9.99889 17.7437 8.81984 17.7502 7.60312C17.7502 7.60243 17.7502 7.60173 17.7502 7.60103C17.75 8.82803 17.332 10.0184 16.5649 10.9761L16.5512 10.9932L16.5385 11.0111L12.5008 16.703Z" stroke="#686868" stroke-width="1.5"/>
<path d="M12.5 8.25C13.3284 8.25 14 7.57843 14 6.75C14 5.92157 13.3284 5.25 12.5 5.25C11.6716 5.25 11 5.92157 11 6.75C11 7.57843 11.6716 8.25 12.5 8.25Z" fill="#686868"/>
<path d="M21.5 9H20V10.5H21.5V21H3.5V10.5H5V9H3.5C3.10218 9 2.72064 9.15804 2.43934 9.43934C2.15804 9.72064 2 10.1022 2 10.5V21C2 21.3978 2.15804 21.7794 2.43934 22.0607C2.72064 22.342 3.10218 22.5 3.5 22.5H21.5C21.8978 22.5 22.2794 22.342 22.5607 22.0607C22.842 21.7794 23 21.3978 23 21V10.5C23 10.1022 22.842 9.72064 22.5607 9.43934C22.2794 9.15804 21.8978 9 21.5 9Z" fill="#686868"/>
</svg>
