<svg width="23" height="23" viewBox="0 0 23 23" fill="none" xmlns="http://www.w3.org/2000/svg">
<path d="M22.7606 5.39892V13.238C22.0692 12.7658 21.3099 12.442 20.4939 12.2666V5.39892H2.36V18.8913H12.6623C12.6056 19.3366 12.5603 19.7818 12.5603 20.2406C12.5603 20.6993 12.6056 21.1446 12.6623 21.5898H2.36C1.11329 21.5898 0.0932617 20.389 0.0932617 18.8913V2.70043C0.0932617 1.20278 1.10196 0.00195312 2.36 0.00195312H9.1602L11.4269 2.70043H20.4939C21.7406 2.70043 22.7606 3.90126 22.7606 5.39892Z" fill="#242424"/>
<path d="M21.9228 18.5105C21.8617 18.4293 21.8281 18.3248 21.8281 18.2167C21.8281 18.1086 21.8617 18.0041 21.9228 17.9229L22.41 17.2818C22.4637 17.2118 22.4971 17.1236 22.5053 17.0301C22.5135 16.9365 22.4962 16.8423 22.4557 16.7609L21.6943 15.2206C21.6543 15.1393 21.5934 15.075 21.5203 15.0366C21.4471 14.9982 21.3655 14.9878 21.287 15.0069L20.5713 15.1761C20.4802 15.1981 20.3854 15.1803 20.3048 15.1262C20.2241 15.0721 20.1632 14.9853 20.1335 14.8822L19.9013 14.0675C19.8757 13.9791 19.8271 13.9023 19.7622 13.848C19.6973 13.7937 19.6194 13.7646 19.5396 13.7648H18.0168C17.9338 13.7597 17.8517 13.7866 17.7829 13.8413C17.7142 13.8959 17.6626 13.9754 17.6361 14.0675L17.4229 14.8822C17.3932 14.9853 17.3323 15.0721 17.2517 15.1262C17.171 15.1803 17.0762 15.1981 16.9851 15.1761L16.2504 15.0069C16.176 14.9946 16.1001 15.0083 16.0324 15.0464C15.9647 15.0844 15.908 15.145 15.8697 15.2206L15.1083 16.7609C15.0669 16.8414 15.0483 16.935 15.0551 17.0286C15.0619 17.1221 15.0939 17.2108 15.1464 17.2818L15.6299 17.9229C15.6909 18.0041 15.7246 18.1086 15.7246 18.2167C15.7246 18.3248 15.6909 18.4293 15.6299 18.5105L15.1464 19.1516C15.0939 19.2226 15.0619 19.3113 15.0551 19.4048C15.0483 19.4984 15.0669 19.592 15.1083 19.6725L15.8697 21.2128C15.9097 21.2941 15.9706 21.3585 16.0438 21.3968C16.1169 21.4352 16.1986 21.4456 16.2771 21.4265L16.9928 21.2573C17.0838 21.2353 17.1786 21.2531 17.2593 21.3072C17.3399 21.3613 17.4009 21.4481 17.4306 21.5512L17.6628 22.3659C17.6893 22.458 17.7408 22.5375 17.8096 22.5921C17.8783 22.6468 17.9605 22.6737 18.0435 22.6686H19.5663C19.6461 22.6688 19.7239 22.6397 19.7888 22.5854C19.8537 22.5311 19.9024 22.4543 19.9279 22.3659L20.1601 21.5512C20.1898 21.4481 20.2508 21.3613 20.3314 21.3072C20.4121 21.2531 20.5069 21.2353 20.5979 21.2573L21.3136 21.4265C21.3921 21.4456 21.4738 21.4352 21.5469 21.3968C21.6201 21.3585 21.681 21.2941 21.721 21.2128L22.4824 19.6725C22.5228 19.5911 22.5401 19.4969 22.5319 19.4034C22.5237 19.3098 22.4904 19.2216 22.4367 19.1516L21.9228 18.5105ZM21.3555 19.1071L21.6601 19.5078L21.1728 20.4961L20.7236 20.3892C20.4494 20.3237 20.1642 20.3781 19.9221 20.5423C19.6799 20.7064 19.4978 20.9688 19.4102 21.2796L19.2655 21.7782H18.2909L18.1539 21.2707C18.0663 20.9599 17.8841 20.6975 17.642 20.5334C17.3999 20.3692 17.1147 20.3148 16.8405 20.3803L16.3913 20.4872L15.8964 19.5033L16.2009 19.1026C16.3882 18.8578 16.4917 18.5408 16.4917 18.2123C16.4917 17.8837 16.3882 17.5667 16.2009 17.3219L15.8964 16.9212L16.3836 15.9418L16.8329 16.0486C17.107 16.1142 17.3923 16.0597 17.6344 15.8956C17.8765 15.7314 18.0586 15.4691 18.1463 15.1583L18.2909 14.6552H19.2655L19.4102 15.1627C19.4978 15.4735 19.6799 15.7359 19.9221 15.9C20.1642 16.0642 20.4494 16.1186 20.7236 16.0531L21.1728 15.9462L21.6601 16.9346L21.3555 17.3352C21.1703 17.5795 21.0681 17.8947 21.0681 18.2212C21.0681 18.5476 21.1703 18.8628 21.3555 19.1071ZM18.7782 16.4359C18.477 16.4359 18.1826 16.5404 17.9322 16.7361C17.6818 16.9317 17.4866 17.2098 17.3714 17.5352C17.2561 17.8606 17.2259 18.2187 17.2847 18.5641C17.3435 18.9095 17.4885 19.2268 17.7014 19.4759C17.9144 19.7249 18.1857 19.8945 18.4811 19.9632C18.7765 20.032 19.0827 19.9967 19.361 19.8619C19.6392 19.7271 19.877 19.4989 20.0444 19.206C20.2117 18.9132 20.301 18.5689 20.301 18.2167C20.301 17.7444 20.1406 17.2915 19.855 16.9575C19.5694 16.6236 19.1821 16.4359 18.7782 16.4359ZM18.7782 19.1071C18.6276 19.1071 18.4804 19.0549 18.3552 18.957C18.23 18.8592 18.1324 18.7201 18.0748 18.5574C18.0172 18.3947 18.0021 18.2157 18.0315 18.043C18.0608 17.8703 18.1334 17.7116 18.2398 17.5871C18.3463 17.4626 18.482 17.3778 18.6297 17.3434C18.7774 17.3091 18.9305 17.3267 19.0696 17.3941C19.2087 17.4615 19.3276 17.5756 19.4113 17.722C19.495 17.8685 19.5396 18.0406 19.5396 18.2167C19.5396 18.4528 19.4594 18.6793 19.3166 18.8463C19.1738 19.0133 18.9802 19.1071 18.7782 19.1071Z" fill="#242424"/>
</svg>
