<svg width="16" height="16" viewBox="0 0 16 16" fill="none" xmlns="http://www.w3.org/2000/svg">
<path d="M8.42687 0.77832C9.42883 0.77832 10.3898 1.17635 11.0982 1.88483C11.8067 2.59332 12.2048 3.55424 12.2048 4.55619C12.2048 5.55815 11.8067 6.51907 11.0982 7.22755C10.3898 7.93604 9.42883 8.33407 8.42687 8.33407C7.42491 8.33407 6.46399 7.93604 5.7555 7.22755C5.04701 6.51907 4.64898 5.55815 4.64898 4.55619C4.64898 3.55424 5.04701 2.59332 5.7555 1.88483C6.46399 1.17635 7.42491 0.77832 8.42687 0.77832ZM8.42687 2.66726C7.92589 2.66726 7.44543 2.86627 7.09119 3.22051C6.73694 3.57476 6.53793 4.05522 6.53793 4.55619C6.53793 5.05717 6.73694 5.53763 7.09119 5.89187C7.44543 6.24612 7.92589 6.44513 8.42687 6.44513C8.92785 6.44513 9.40831 6.24612 9.76256 5.89187C10.1168 5.53763 10.3158 5.05717 10.3158 4.55619C10.3158 4.05522 10.1168 3.57476 9.76256 3.22051C9.40831 2.86627 8.92785 2.66726 8.42687 2.66726ZM8.42687 9.27854C10.9486 9.27854 15.9827 10.5347 15.9827 13.0564V15.8898H0.871094V13.0564C0.871094 10.5347 5.90513 9.27854 8.42687 9.27854ZM8.42687 11.073C5.62179 11.073 2.66559 12.452 2.66559 13.0564V14.0953H14.1882V13.0564C14.1882 12.452 11.232 11.073 8.42687 11.073Z" fill="black"/>
</svg>
