<svg width="35" height="35" viewBox="0 0 35 35" fill="none" xmlns="http://www.w3.org/2000/svg">
<path d="M7.5 9.83333L3.95 6.3L6.3 3.95L9.83333 7.5L7.5 9.83333ZM19.1667 0V5H15.8333V0H19.1667ZM31.05 6.3L27.5 9.83333L25.1667 7.5L28.7 3.95L31.05 6.3ZM5 15.8333V19.1667H0V15.8333H5ZM30 15.8333H35V19.1667H30V15.8333ZM7.5 31.6667H27.5C28.3841 31.6667 29.2319 32.0179 29.857 32.643C30.4821 33.2681 30.8333 34.1159 30.8333 35H4.16667C4.16667 34.1159 4.51786 33.2681 5.14298 32.643C5.7681 32.0179 6.61594 31.6667 7.5 31.6667ZM17.5 6.66667C20.1522 6.66667 22.6957 7.72024 24.5711 9.5956C26.4464 11.471 27.5 14.0145 27.5 16.6667V30H7.5V16.6667C7.5 14.0145 8.55357 11.471 10.4289 9.5956C12.3043 7.72024 14.8478 6.66667 17.5 6.66667ZM17.5 10C15.7319 10 14.0362 10.7024 12.786 11.9526C11.5357 13.2029 10.8333 14.8986 10.8333 16.6667V26.6667H24.1667V16.6667C24.1667 14.8986 23.4643 13.2029 22.214 11.9526C20.9638 10.7024 19.2681 10 17.5 10Z" fill="#3A3A3A"/>
</svg>
