<svg width="20" height="21" viewBox="0 0 20 21" fill="none" xmlns="http://www.w3.org/2000/svg">
<path d="M2.00108 19.25H2.75108V18.5V12.5C2.75108 10.5772 3.51492 8.73311 4.87456 7.37348C6.2342 6.01384 8.07826 5.25 10.0011 5.25C11.9239 5.25 13.768 6.01384 15.1276 7.37348C16.4872 8.73311 17.2511 10.5772 17.2511 12.5V18.5V19.25H18.0011H18.2511V19.75H1.75108V19.25H2.00108ZM3.25108 18.5V19.25H4.00108H16.0011H16.7511V18.5V12.5C16.7511 10.7098 16.0399 8.9929 14.7741 7.72703C13.5082 6.46116 11.7913 5.75 10.0011 5.75C8.21087 5.75 6.49398 6.46116 5.22811 7.72703C3.96224 8.9929 3.25108 10.7098 3.25108 12.5V18.5ZM9.75108 1.25H10.2511V2.75H9.75108V1.25ZM16.7189 5.42881L17.7791 4.36866L18.1325 4.72213L17.0728 5.7824L16.7189 5.42881ZM2.22421 4.36854L3.28448 5.42831L2.93014 5.7829L1.87049 4.72225L2.22421 4.36854ZM5.81676 11.75C5.9689 10.9014 6.37691 10.1128 6.99488 9.4948C7.61285 8.87683 8.40153 8.46882 9.25008 8.31668V8.82575C8.535 8.97173 7.87222 9.32456 7.34843 9.84835C6.82464 10.3721 6.47181 11.0349 6.32583 11.75H5.81676Z" stroke="#686868" stroke-width="1.5"/>
</svg>
