<svg width="25" height="25" viewBox="0 0 25 25" fill="none" xmlns="http://www.w3.org/2000/svg">
<path d="M4.00108 21.25H4.75108V20.5V14.5C4.75108 12.5772 5.51492 10.7331 6.87456 9.37348C8.2342 8.01384 10.0783 7.25 12.0011 7.25C13.9239 7.25 15.768 8.01384 17.1276 9.37348C18.4872 10.7331 19.2511 12.5772 19.2511 14.5V20.5V21.25H20.0011H20.2511V21.75H3.75108V21.25H4.00108ZM5.25108 20.5V21.25H6.00108H18.0011H18.7511V20.5V14.5C18.7511 12.7098 18.0399 10.9929 16.7741 9.72703C15.5082 8.46116 13.7913 7.75 12.0011 7.75C10.2109 7.75 8.49398 8.46116 7.22811 9.72703C5.96224 10.9929 5.25108 12.7098 5.25108 14.5V20.5ZM11.7511 3.25H12.2511V4.75H11.7511V3.25ZM18.7189 7.42881L19.7791 6.36866L20.1325 6.72213L19.0728 7.7824L18.7189 7.42881ZM4.22421 6.36854L5.28448 7.42831L4.93014 7.7829L3.87049 6.72225L4.22421 6.36854ZM7.81676 13.75C7.9689 12.9014 8.37691 12.1128 8.99488 11.4948C9.61285 10.8768 10.4015 10.4688 11.2501 10.3167V10.8258C10.535 10.9717 9.87222 11.3246 9.34843 11.8483C8.82464 12.3721 8.47181 13.0349 8.32583 13.75H7.81676Z" stroke="#686868" stroke-width="1.5"/>
<circle cx="20" cy="12.5" r="4" fill="#B30000"/>
</svg>
