<svg width="23" height="23" viewBox="0 0 23 23" fill="none" xmlns="http://www.w3.org/2000/svg">
<g clip-path="url(#clip0_1065_15631)">
<path d="M21.5518 18.7518C21.5894 18.4381 21.5894 18.1211 21.5518 17.8074L22.5435 17.0329C22.6379 16.9668 22.6568 16.8629 22.6001 16.7307L21.6556 15.1062C21.599 15.0023 21.4762 14.974 21.3723 15.0023L20.1917 15.4462C19.9273 15.2856 19.6911 15.1251 19.3984 15.0117L19.2189 13.7556C19.21 13.6996 19.1813 13.6488 19.1379 13.6123C19.0945 13.5759 19.0394 13.5563 18.9828 13.5573H17.0938C16.9805 13.5573 16.8766 13.6423 16.8577 13.7556L16.6877 15.0117C16.3855 15.1251 16.1494 15.2856 15.8849 15.4462L14.7327 15.0023C14.6099 14.974 14.4777 15.0023 14.421 15.1062L13.4765 16.7307C13.4198 16.8629 13.4482 16.9668 13.5332 17.0329L14.5343 17.8074C14.5154 17.9679 14.4965 18.1285 14.4965 18.2796C14.4965 18.4307 14.5154 18.5913 14.5343 18.7518L13.5332 19.5263C13.4482 19.5924 13.4198 19.7246 13.4765 19.8285L14.421 21.4625C14.4777 21.5852 14.6099 21.5852 14.7327 21.5852L15.8849 21.0847C16.1494 21.2736 16.3855 21.4341 16.6877 21.5569L16.8577 22.8036C16.8766 22.9169 16.9805 23.0019 17.0938 23.0019H18.9828C19.1056 23.0019 19.2 22.9169 19.2189 22.8036L19.3984 21.5569C19.6911 21.4341 19.9273 21.2736 20.1917 21.0847L21.3723 21.5852C21.4762 21.5852 21.599 21.5852 21.6556 21.4625L22.6001 19.8285C22.6568 19.7246 22.6379 19.5924 22.5435 19.5263L21.5518 18.7518ZM18.0383 19.9324C17.1316 19.9324 16.3855 19.1957 16.3855 18.2796C16.3855 17.3635 17.1316 16.6268 18.0383 16.6268C18.945 16.6268 19.6911 17.3635 19.6911 18.2796C19.6911 19.1957 18.9545 19.9324 18.0383 19.9324ZM11.5026 19.2241H2.92676V18.2796L4.8157 16.3907V10.7238C4.8157 7.796 6.70465 5.24593 9.53807 4.39591V4.11257C9.53807 3.07365 10.3881 2.22363 11.427 2.22363C12.4659 2.22363 13.316 3.07365 13.316 4.11257V4.39591C16.1494 5.24593 18.0383 7.796 18.0383 10.7238V11.6683C17.3866 11.6683 16.7444 11.7722 16.1494 11.9422V10.7238C16.1494 8.07934 14.0715 6.00151 11.427 6.00151C8.78249 6.00151 6.70465 8.07934 6.70465 10.7238V17.3351H11.5026C11.4553 17.6468 11.427 17.9585 11.427 18.2796C11.427 18.6007 11.4553 18.9124 11.5026 19.2241ZM11.7104 20.1685C11.8992 20.7352 12.1259 21.2736 12.4282 21.7647C12.1354 21.9441 11.7954 22.0575 11.427 22.0575C10.3881 22.0575 9.53807 21.2074 9.53807 20.1685H11.7104Z" fill="black"/>
</g>
<defs>
<clipPath id="clip0_1065_15631">
<rect width="22.6673" height="22.6672" fill="white" transform="translate(0.0932617 0.334961)"/>
</clipPath>
</defs>
</svg>
