<svg width="25" height="24" viewBox="0 0 25 24" fill="none" xmlns="http://www.w3.org/2000/svg">
<path d="M5.11935 15.9324C5.88254 17.0858 6.92277 18.0377 8.14513 18.7124C8.13982 18.7309 8.13463 18.7494 8.12955 18.7679C7.39994 18.3724 6.73215 17.8792 6.14677 17.3029C5.33406 16.5028 4.69633 15.5582 4.26866 14.5245C3.84104 13.4908 3.63146 12.3873 3.65117 11.2774C3.67089 10.1674 3.91953 9.07128 4.38375 8.05183L4.61345 7.54741L4.19867 7.17976C3.91852 6.93144 3.74323 6.60252 3.6947 6.25263C3.64622 5.90307 3.72597 5.54584 3.92516 5.24143C4.12488 4.93621 4.43426 4.7008 4.80518 4.58363C5.17646 4.46635 5.5796 4.47722 5.94278 4.6138C6.30555 4.75022 6.59983 5.001 6.78093 5.31527C6.96155 5.62873 7.0207 5.98911 6.95197 6.33596C6.88315 6.68326 6.68861 7.00337 6.39343 7.23726C6.09761 7.47165 5.72083 7.60292 5.32788 7.60236H5.32682H5.17485H4.69421L4.49343 8.03906C4.00437 9.10277 3.75115 10.2538 3.75101 11.4186L3.75101 11.4193C3.75226 13.0201 4.22799 14.5853 5.11935 15.9324ZM9.10142 3.66537C9.09232 3.6512 9.08314 3.63708 9.07388 3.62301C10.3668 3.10509 11.7755 2.88599 13.1842 2.99093C14.9097 3.11948 16.5554 3.72831 17.9194 4.73882L18.3352 5.04688L18.7708 4.76747C19.0953 4.55931 19.4903 4.46556 19.8851 4.50739C20.2797 4.54921 20.6406 4.72285 20.9062 4.99025C21.1711 5.25697 21.3243 5.59927 21.347 5.95505C21.3696 6.31067 21.261 6.6663 21.0337 6.95945L21.6264 7.41897L21.0337 6.95945C20.8058 7.2534 20.4717 7.46684 20.0863 7.55406C19.7006 7.64135 19.2957 7.59473 18.945 7.42482C18.5948 7.25516 18.326 6.97624 18.1784 6.64424C18.0311 6.31305 18.0111 5.94496 18.1205 5.6024L18.2828 5.09418L17.856 4.77414C16.5299 3.77988 14.9352 3.17722 13.2649 3.03526C11.8416 2.91429 10.4121 3.13196 9.10142 3.66537ZM20.0322 15.6951C21.051 14.0343 21.4429 12.0928 21.1538 10.1965C21.1862 10.186 21.2184 10.1752 21.2505 10.164C21.376 10.9621 21.3812 11.7747 21.2649 12.5769C21.1054 13.6764 20.7204 14.7363 20.1306 15.6955C19.5408 16.6547 18.7576 17.4948 17.8244 18.1661C16.8912 18.8375 15.827 19.3265 14.6927 19.6035L14.2398 19.7141L14.1385 20.1692C14.0608 20.519 13.8551 20.8383 13.5489 21.0665C13.2421 21.2953 12.8561 21.4158 12.4592 21.4011C12.0623 21.3865 11.6883 21.2379 11.4021 20.9884C11.1167 20.7395 10.9378 20.4075 10.8885 20.0538C10.8392 19.7005 10.9209 19.3394 11.1244 19.0328C11.3285 18.7254 11.6441 18.4903 12.0209 18.3768C12.3981 18.2632 12.8056 18.2811 13.1693 18.4265C13.5325 18.5718 13.823 18.8321 13.9962 19.1542L14.2776 19.6773L14.8513 19.5232C17.0215 18.9402 18.8808 17.572 20.0322 15.6951Z" stroke="#686868" stroke-width="1.5"/>
</svg>
