<svg width="21" height="18" viewBox="0 0 21 18" fill="none" xmlns="http://www.w3.org/2000/svg">
<path d="M1.3335 8.99984C1.3335 5.54309 1.3335 3.81425 2.40783 2.74084C3.48125 1.6665 5.21008 1.6665 8.66683 1.6665H12.3335C15.7902 1.6665 17.5191 1.6665 18.5925 2.74084C19.6668 3.81425 19.6668 5.54309 19.6668 8.99984C19.6668 12.4566 19.6668 14.1854 18.5925 15.2588C17.5191 16.3332 15.7902 16.3332 12.3335 16.3332H8.66683C5.21008 16.3332 3.48125 16.3332 2.40783 15.2588C1.3335 14.1854 1.3335 12.4566 1.3335 8.99984Z" stroke="#686868" stroke-width="1.5"/>
<path d="M8.66683 12.6665H5.00016M12.3335 12.6665H10.9585M1.3335 7.1665H19.6668" stroke="#686868" stroke-width="1.5" stroke-linecap="round"/>
</svg>
