<svg width="25" height="24" viewBox="0 0 25 24" fill="none" xmlns="http://www.w3.org/2000/svg">
<path d="M17.0554 16.4054L17.0553 16.4053L16.9053 16.5553L16.8979 16.5627L16.8979 16.5627C15.4525 17.9682 13.5149 18.7532 11.4988 18.75M17.0554 16.4054L19.25 10.9988C19.2494 6.71815 15.7808 3.25 11.5 3.25C7.21879 3.25 3.75 6.71879 3.75 11C3.75 15.2808 7.21815 18.7494 11.4988 18.75M17.0554 16.4054L17.0627 16.3979M17.0554 16.4054L17.0627 16.3979M11.4988 18.75L11.5 18V18.75C11.4996 18.75 11.4992 18.75 11.4988 18.75ZM17.0627 16.3979C18.468 14.9527 19.2529 13.0157 19.25 11L17.0627 16.3979ZM17.9458 16.1479L17.5255 16.6722L18.0007 17.1474L21.7533 20.8991L21.3991 21.2533L17.6474 17.5007L17.1722 17.0255L16.6479 17.4458C15.188 18.6161 13.3721 19.2527 11.5011 19.25H11.5C6.94621 19.25 3.25 15.5538 3.25 11C3.25 6.44621 6.94621 2.75 11.5 2.75C16.0538 2.75 19.75 6.44621 19.75 11V11.0011C19.7527 12.8721 19.1161 14.688 17.9458 16.1479Z" stroke="#686868" stroke-width="1.5"/>
</svg>
