<svg width="25" height="24" viewBox="0 0 25 24" fill="none" xmlns="http://www.w3.org/2000/svg">
<path d="M10.3726 18.8263L10.3123 18.3939L9.90647 18.2329C9.35943 18.0158 8.88007 17.717 8.39712 17.3455L8.05634 17.0834L7.65793 17.245L5.38148 18.1684L3.59771 15.0824L5.53358 13.5594L5.84656 13.3132L5.81789 12.916L5.75173 11.9992L5.81801 11.0524L5.84604 10.6519L5.52835 10.4065L3.59872 8.91581L5.38188 5.83093L7.66033 6.74597L8.0521 6.90331L8.38984 6.65C8.87756 6.28421 9.35867 5.9845 9.90647 5.76712L10.3123 5.60609L10.3726 5.17371L10.711 2.75H14.2886L14.627 5.17371L14.6874 5.60609L15.0932 5.76712C15.641 5.9845 16.1221 6.28421 16.6098 6.65L16.9476 6.90331L17.3393 6.74597L19.6178 5.83093L21.401 8.91581L19.4713 10.4065L19.1536 10.6519L19.1817 11.0524L19.248 12L19.1817 12.9476L19.1536 13.3481L19.4713 13.5935L21.401 15.0842L19.6178 18.1691L17.3393 17.254L16.9476 17.0967L16.6098 17.35C16.1221 17.7158 15.641 18.0155 15.0932 18.2329L14.6874 18.3939L14.627 18.8263L14.2886 21.25H10.711L10.3726 18.8263ZM5.16586 5.74416L5.16945 5.74562L5.16586 5.74416ZM11.7498 3.25H11.0987L11.0073 3.89473L10.7078 6.00739C9.74141 6.2971 8.87216 6.81333 8.16654 7.49405L6.237 6.66138L5.62389 6.3968L5.2902 6.97521L4.5402 8.27521L4.20462 8.85688L4.74582 9.25444L6.43287 10.4937C6.18921 11.4847 6.18865 12.5202 6.43225 13.5072L4.73533 14.7559L4.1949 15.1536L4.5302 15.7348L5.2802 17.0348L5.61289 17.6115L6.22494 17.3495L8.17756 16.5138C8.87792 17.1852 9.73809 17.7 10.6978 17.9849L10.9972 20.1049L11.0883 20.75H11.7398H13.2598H13.911L14.0024 20.1053L14.3021 17.9914C15.2607 17.7013 16.121 17.1861 16.8221 16.5138L18.7747 17.3495L19.3868 17.6115L19.7195 17.0348L20.4695 15.7348L20.8058 15.1518L20.2625 14.7546L18.5671 13.515C18.8109 12.5228 18.8108 11.4859 18.5668 10.4937L20.2539 9.25444L20.7951 8.85688L20.4595 8.27521L19.7095 6.97521L19.3758 6.3968L18.7627 6.66138L16.8331 7.49406C16.1283 6.81422 15.2592 6.29837 14.2917 6.01391L13.9925 3.89512L13.9014 3.25H13.2498H11.7498ZM12.4998 8.75C13.3618 8.75 14.1884 9.09241 14.7979 9.7019C15.4074 10.3114 15.7498 11.138 15.7498 12C15.7498 12.862 15.4074 13.6886 14.7979 14.2981C14.1884 14.9076 13.3618 15.25 12.4998 15.25C11.6379 15.25 10.8112 14.9076 10.2017 14.2981C9.59225 13.6886 9.24984 12.862 9.24984 12C9.24984 11.138 9.59225 10.3114 10.2017 9.7019C10.8112 9.09241 11.6379 8.75 12.4998 8.75ZM12.4998 9.25C11.7705 9.25 11.071 9.53973 10.5553 10.0555C10.0396 10.5712 9.74984 11.2707 9.74984 12C9.74984 12.7293 10.0396 13.4288 10.5553 13.9445C11.071 14.4603 11.7705 14.75 12.4998 14.75C13.2292 14.75 13.9287 14.4603 14.4444 13.9445C14.9601 13.4288 15.2498 12.7293 15.2498 12C15.2498 11.2707 14.9601 10.5712 14.4444 10.0555C13.9287 9.53973 13.2292 9.25 12.4998 9.25Z" stroke="#686868" stroke-width="1.5"/>
</svg>
