<svg width="25" height="24" viewBox="0 0 25 24" fill="none" xmlns="http://www.w3.org/2000/svg">
<g clip-path="url(#clip0_802_17198)">
<mask id="path-1-inside-1_802_17198" fill="white">
<path d="M12.5 9.12891C12.8984 9.12891 13.2695 9.20312 13.6133 9.35156C13.957 9.5 14.2617 9.70703 14.5273 9.97266C14.793 10.2383 14.9961 10.5391 15.1367 10.875C15.2773 11.2109 15.3555 11.5859 15.3711 12C15.3711 12.3984 15.2969 12.7695 15.1484 13.1133C15 13.457 14.793 13.7617 14.5273 14.0273C14.2617 14.293 13.9609 14.4961 13.625 14.6367C13.2891 14.7773 12.9141 14.8555 12.5 14.8711C12.1016 14.8711 11.7305 14.7969 11.3867 14.6484C11.043 14.5 10.7383 14.293 10.4727 14.0273C10.207 13.7617 10.0039 13.4609 9.86328 13.125C9.72266 12.7891 9.64453 12.4141 9.62891 12C9.62891 11.6016 9.70312 11.2305 9.85156 10.8867C10 10.543 10.207 10.2383 10.4727 9.97266C10.7383 9.70703 11.0391 9.50391 11.375 9.36328C11.7109 9.22266 12.0859 9.14453 12.5 9.12891ZM12.5 13.6289C12.7266 13.6289 12.9375 13.5859 13.1328 13.5C13.3281 13.4141 13.5 13.3008 13.6484 13.1602C13.7969 13.0195 13.9141 12.8477 14 12.6445C14.0859 12.4414 14.1289 12.2266 14.1289 12C14.1289 11.7734 14.0859 11.5625 14 11.3672C13.9141 11.1719 13.8008 11 13.6602 10.8516C13.5195 10.7031 13.3477 10.5859 13.1445 10.5C12.9414 10.4141 12.7266 10.3711 12.5 10.3711C12.2734 10.3711 12.0625 10.4141 11.8672 10.5C11.6719 10.5859 11.5 10.6992 11.3516 10.8398C11.2031 10.9805 11.0859 11.1523 11 11.3555C10.9141 11.5586 10.8711 11.7734 10.8711 12C10.8711 12.2266 10.9141 12.4375 11 12.6328C11.0859 12.8281 11.1992 13 11.3398 13.1484C11.4805 13.2969 11.6523 13.4141 11.8555 13.5C12.0586 13.5859 12.2734 13.6289 12.5 13.6289ZM20.8906 3.60938C21.4531 4.16406 21.9492 4.76562 22.3789 5.41406C22.8086 6.0625 23.1719 6.74219 23.4688 7.45312C23.7656 8.16406 23.9883 8.90234 24.1367 9.66797C24.2852 10.4336 24.3633 11.2109 24.3711 12C24.3711 12.7891 24.2969 13.5664 24.1484 14.332C24 15.0977 23.7734 15.8359 23.4688 16.5469C23.1641 17.2578 22.8008 17.9375 22.3789 18.5859C21.957 19.2344 21.4609 19.8359 20.8906 20.3906L20.0117 19.5117C20.5117 19.0117 20.9531 18.4727 21.3359 17.8945C21.7188 17.3164 22.043 16.707 22.3086 16.0664C22.5742 15.4258 22.7734 14.7656 22.9062 14.0859C23.0391 13.4062 23.1094 12.7109 23.1172 12C23.1172 11.2969 23.0508 10.6055 22.918 9.92578C22.7852 9.24609 22.5859 8.58203 22.3203 7.93359C22.0547 7.28516 21.7305 6.67578 21.3477 6.10547C20.9648 5.53516 20.5195 4.99609 20.0117 4.48828L20.8906 3.60938ZM4.98828 4.48828C4.48828 4.98828 4.04688 5.52734 3.66406 6.10547C3.28125 6.68359 2.95312 7.29297 2.67969 7.93359C2.40625 8.57422 2.20703 9.23438 2.08203 9.91406C1.95703 10.5938 1.88672 11.2891 1.87109 12C1.87109 12.7031 1.9375 13.3945 2.07031 14.0742C2.20312 14.7539 2.40625 15.418 2.67969 16.0664C2.95312 16.7148 3.27734 17.3242 3.65234 17.8945C4.02734 18.4648 4.47266 19.0039 4.98828 19.5117L4.10938 20.3906C3.54688 19.8359 3.05078 19.2344 2.62109 18.5859C2.19141 17.9375 1.82812 17.2578 1.53125 16.5469C1.23438 15.8359 1.01172 15.0977 0.863281 14.332C0.714844 13.5664 0.636719 12.7891 0.628906 12C0.628906 11.2109 0.703125 10.4336 0.851562 9.66797C1 8.90234 1.22656 8.16406 1.53125 7.45312C1.83594 6.74219 2.19922 6.0625 2.62109 5.41406C3.04297 4.76562 3.53906 4.16406 4.10938 3.60938L4.98828 4.48828ZM17.7148 6.78516C18.4102 7.48828 18.9414 8.28516 19.3086 9.17578C19.6758 10.0664 19.8633 11.0078 19.8711 12C19.8711 12.9844 19.6875 13.9219 19.3203 14.8125C18.9531 15.7031 18.418 16.5039 17.7148 17.2148L16.8359 16.3359C17.4141 15.7578 17.8555 15.0977 18.1602 14.3555C18.4648 13.6133 18.6211 12.8281 18.6289 12C18.6289 11.1797 18.4766 10.3984 18.1719 9.65625C17.8672 8.91406 17.4219 8.25 16.8359 7.66406L17.7148 6.78516ZM8.16406 7.66406C7.58594 8.24219 7.14453 8.90234 6.83984 9.64453C6.53516 10.3867 6.37891 11.1719 6.37109 12C6.37109 12.8203 6.52344 13.6016 6.82812 14.3438C7.13281 15.0859 7.57812 15.75 8.16406 16.3359L7.28516 17.2148C6.58984 16.5117 6.05859 15.7148 5.69141 14.8242C5.32422 13.9336 5.13672 12.9922 5.12891 12C5.12891 11.0156 5.3125 10.0781 5.67969 9.1875C6.04688 8.29688 6.58203 7.49609 7.28516 6.78516L8.16406 7.66406Z"/>
</mask>
<path d="M12.5 9.12891V7.62891H12.4717L12.4434 7.62997L12.5 9.12891ZM15.3711 12H16.8711V11.9717L16.87 11.9434L15.3711 12ZM12.5 14.8711V16.3711H12.5283L12.5566 16.37L12.5 14.8711ZM9.62891 12H8.12891V12.0283L8.12997 12.0566L9.62891 12ZM20.8906 3.60938L21.9438 2.54132L20.8832 1.49545L19.83 2.54871L20.8906 3.60938ZM24.3711 12H25.8711V11.9926L25.871 11.9851L24.3711 12ZM20.8906 20.3906L19.83 21.4513L20.876 22.4973L21.9365 21.4659L20.8906 20.3906ZM20.0117 19.5117L18.9511 18.4511L17.8904 19.5117L18.9511 20.5724L20.0117 19.5117ZM23.1172 12L24.6171 12.0165L24.6172 12.0082V12H23.1172ZM20.0117 4.48828L18.9511 3.42762L17.8904 4.48828L18.9511 5.54894L20.0117 4.48828ZM4.98828 4.48828L6.04894 5.54894L7.1096 4.48828L6.04894 3.42762L4.98828 4.48828ZM1.87109 12L0.371456 11.967L0.371094 11.9835V12H1.87109ZM4.98828 19.5117L6.04894 20.5724L7.11773 19.5036L6.04081 18.443L4.98828 19.5117ZM4.10938 20.3906L3.05616 21.4587L4.11677 22.5046L5.17004 21.4513L4.10938 20.3906ZM0.628906 12H-0.871094V12.0074L-0.87102 12.0149L0.628906 12ZM4.10938 3.60938L5.17004 2.54871L4.124 1.50268L3.06355 2.53409L4.10938 3.60938ZM17.7148 6.78516L18.7814 5.73044L17.7208 4.65789L16.6542 5.7245L17.7148 6.78516ZM19.8711 12H21.3711L21.371 11.9882L19.8711 12ZM17.7148 17.2148L16.6542 18.2755L17.7207 19.342L18.7813 18.2696L17.7148 17.2148ZM16.8359 16.3359L15.7753 15.2753L14.7146 16.3359L15.7753 17.3966L16.8359 16.3359ZM18.6289 12L20.1288 12.0142L20.1289 12.0071V12H18.6289ZM16.8359 7.66406L15.7753 6.6034L14.7146 7.66406L15.7753 8.72472L16.8359 7.66406ZM8.16406 7.66406L9.22472 8.72472L10.2854 7.66406L9.22472 6.6034L8.16406 7.66406ZM6.37109 12L4.87116 11.9858L4.87109 11.9929V12H6.37109ZM8.16406 16.3359L9.22472 17.3966L10.2854 16.3359L9.22472 15.2753L8.16406 16.3359ZM7.28516 17.2148L6.21859 18.2696L7.27921 19.3421L8.34582 18.2755L7.28516 17.2148ZM5.12891 12H3.62886L3.62895 12.0118L5.12891 12ZM7.28516 6.78516L8.34582 5.7245L7.27928 4.65796L6.21865 5.73037L7.28516 6.78516ZM12.5 10.6289C12.7072 10.6289 12.8745 10.6664 13.0186 10.7287L14.2079 7.97447C13.6646 7.73983 13.0896 7.62891 12.5 7.62891V10.6289ZM13.0186 10.7287C13.1879 10.8017 13.3346 10.9012 13.4667 11.0333L15.588 8.912C15.1889 8.51286 14.7262 8.19826 14.2079 7.97447L13.0186 10.7287ZM13.4667 11.0333C13.5988 11.1654 13.6902 11.3039 13.7531 11.4542L16.5204 10.2958C16.302 9.7742 15.9871 9.31114 15.588 8.912L13.4667 11.0333ZM13.7531 11.4542C13.8154 11.603 13.8624 11.7977 13.8722 12.0566L16.87 11.9434C16.8485 11.3742 16.7393 10.8188 16.5204 10.2958L13.7531 11.4542ZM13.8711 12C13.8711 12.2072 13.8336 12.3745 13.7713 12.5186L16.5255 13.7079C16.7602 13.1646 16.8711 12.5896 16.8711 12H13.8711ZM13.7713 12.5186C13.6983 12.6879 13.5988 12.8346 13.4667 12.9667L15.588 15.088C15.9871 14.6889 16.3017 14.2262 16.5255 13.7079L13.7713 12.5186ZM13.4667 12.9667C13.3346 13.0988 13.1961 13.1902 13.0458 13.2531L14.2042 16.0204C14.7258 15.802 15.1889 15.4871 15.588 15.088L13.4667 12.9667ZM13.0458 13.2531C12.897 13.3154 12.7023 13.3624 12.4434 13.3722L12.5566 16.37C13.1258 16.3485 13.6812 16.2393 14.2042 16.0204L13.0458 13.2531ZM12.5 13.3711C12.2928 13.3711 12.1255 13.3336 11.9814 13.2713L10.7921 16.0255C11.3354 16.2602 11.9104 16.3711 12.5 16.3711V13.3711ZM11.9814 13.2713C11.8121 13.1983 11.6654 13.0988 11.5333 12.9667L9.412 15.088C9.81113 15.4871 10.2738 15.8017 10.7921 16.0255L11.9814 13.2713ZM11.5333 12.9667C11.4012 12.8346 11.3098 12.6961 11.2469 12.5458L8.47962 13.7042C8.69796 14.2258 9.01285 14.6889 9.412 15.088L11.5333 12.9667ZM11.2469 12.5458C11.1846 12.397 11.1376 12.2023 11.1278 11.9434L8.12997 12.0566C8.15146 12.6258 8.26068 13.1812 8.47962 13.7042L11.2469 12.5458ZM11.1289 12C11.1289 11.7928 11.1664 11.6255 11.2287 11.4814L8.47447 10.2921C8.23983 10.8354 8.12891 11.4104 8.12891 12H11.1289ZM11.2287 11.4814C11.3017 11.3121 11.4012 11.1654 11.5333 11.0333L9.412 8.912C9.01286 9.31113 8.69826 9.77381 8.47447 10.2921L11.2287 11.4814ZM11.5333 11.0333C11.6654 10.9012 11.8039 10.8099 11.9542 10.7469L10.7958 7.97962C10.2742 8.19796 9.81114 8.51285 9.412 8.912L11.5333 11.0333ZM11.9542 10.7469C12.103 10.6846 12.2977 10.6376 12.5566 10.6278L12.4434 7.62997C11.8742 7.65146 11.3188 7.76068 10.7958 7.97962L11.9542 10.7469ZM12.5 15.1289C12.9215 15.1289 13.3396 15.0478 13.7369 14.873L12.5287 12.127C12.5297 12.1266 12.5304 12.1265 12.5287 12.1269C12.5268 12.1273 12.518 12.1289 12.5 12.1289V15.1289ZM13.7369 14.873C14.083 14.7207 14.4011 14.5134 14.6801 14.2491L12.6168 12.0712C12.5989 12.0882 12.5732 12.1074 12.5287 12.127L13.7369 14.873ZM14.6801 14.2491C14.9901 13.9553 15.2213 13.6074 15.3815 13.229L12.6185 12.0601C12.6119 12.0758 12.6078 12.0815 12.6083 12.0808C12.6085 12.0805 12.6094 12.0793 12.611 12.0774C12.6126 12.0754 12.6146 12.0733 12.6168 12.0712L14.6801 14.2491ZM15.3815 13.229C15.5478 12.8359 15.6289 12.4218 15.6289 12H12.6289C12.6289 12.0314 12.6241 12.047 12.6185 12.0601L15.3815 13.229ZM15.6289 12C15.6289 11.5785 15.5478 11.1604 15.373 10.7631L12.627 11.9713C12.6266 11.9703 12.6265 11.9696 12.6269 11.9713C12.6273 11.9732 12.6289 11.982 12.6289 12H15.6289ZM15.373 10.7631C15.2207 10.417 15.0134 10.0989 14.7491 9.81995L12.5712 11.8832C12.5882 11.9011 12.6074 11.9268 12.627 11.9713L15.373 10.7631ZM14.7491 9.81995C14.4553 9.50985 14.1074 9.27866 13.729 9.11855L12.5601 11.8815C12.5758 11.8881 12.5815 11.8922 12.5808 11.8917C12.5805 11.8915 12.5793 11.8906 12.5774 11.889C12.5754 11.8874 12.5733 11.8854 12.5712 11.8832L14.7491 9.81995ZM13.729 9.11855C13.3359 8.95222 12.9218 8.87109 12.5 8.87109V11.8711C12.5314 11.8711 12.547 11.8759 12.5601 11.8815L13.729 9.11855ZM12.5 8.87109C12.0785 8.87109 11.6604 8.95221 11.2631 9.12703L12.4713 11.873C12.4703 11.8734 12.4696 11.8735 12.4713 11.8731C12.4732 11.8727 12.482 11.8711 12.5 11.8711V8.87109ZM11.2631 9.12703C10.917 9.27932 10.5989 9.48664 10.3199 9.75091L12.3832 11.9288C12.4011 11.9118 12.4268 11.8926 12.4713 11.873L11.2631 9.12703ZM10.3199 9.75091C10.0099 10.0447 9.77866 10.3926 9.61855 10.771L12.3815 11.9399C12.3881 11.9242 12.3922 11.9185 12.3917 11.9192C12.3915 11.9195 12.3906 11.9207 12.389 11.9226C12.3874 11.9246 12.3854 11.9267 12.3832 11.9288L10.3199 9.75091ZM9.61855 10.771C9.45222 11.1641 9.37109 11.5782 9.37109 12H12.3711C12.3711 11.9686 12.3759 11.953 12.3815 11.9399L9.61855 10.771ZM9.37109 12C9.37109 12.4215 9.45221 12.8396 9.62703 13.2369L12.373 12.0287C12.3734 12.0297 12.3735 12.0304 12.3731 12.0287C12.3727 12.0268 12.3711 12.018 12.3711 12H9.37109ZM9.62703 13.2369C9.77932 13.583 9.98664 13.9011 10.2509 14.1801L12.4288 12.1168C12.4118 12.0989 12.3926 12.0732 12.373 12.0287L9.62703 13.2369ZM10.2509 14.1801C10.5447 14.4901 10.8926 14.7213 11.271 14.8815L12.4399 12.1185C12.4242 12.1119 12.4185 12.1078 12.4192 12.1083C12.4195 12.1085 12.4207 12.1094 12.4226 12.111C12.4246 12.1126 12.4267 12.1146 12.4288 12.1168L10.2509 14.1801ZM11.271 14.8815C11.6641 15.0478 12.0782 15.1289 12.5 15.1289V12.1289C12.4686 12.1289 12.453 12.1241 12.4399 12.1185L11.271 14.8815ZM19.8374 4.67743C20.3272 5.16045 20.757 5.68196 21.1285 6.24263L23.6293 4.58549C23.1414 3.84929 22.579 3.16767 21.9438 2.54132L19.8374 4.67743ZM21.1285 6.24263C21.5063 6.81274 21.8246 7.4086 22.0846 8.03113L24.8529 6.87512C24.5191 6.07577 24.1109 5.31226 23.6293 4.58549L21.1285 6.24263ZM22.0846 8.03113C22.3416 8.64667 22.5349 9.28686 22.6641 9.95347L25.6093 9.38247C25.4417 8.51782 25.1896 7.68145 24.8529 6.87512L22.0846 8.03113ZM22.6641 9.95347C22.7951 10.6288 22.8642 11.3156 22.8712 12.0149L25.871 11.9851C25.8623 11.1063 25.7752 10.2383 25.6093 9.38247L22.6641 9.95347ZM22.8711 12C22.8711 12.6944 22.8058 13.3761 22.6759 14.0465L25.621 14.6175C25.7879 13.7567 25.8711 12.8838 25.8711 12H22.8711ZM22.6759 14.0465C22.5476 14.7082 22.3523 15.344 22.09 15.956L24.8475 17.1378C25.1946 16.3278 25.4524 15.4871 25.621 14.6175L22.6759 14.0465ZM22.09 15.956C21.8192 16.5879 21.4966 17.1916 21.1216 17.7679L23.6362 19.404C24.105 18.6834 24.5089 17.9278 24.8475 17.1378L22.09 15.956ZM21.1216 17.7679C20.7621 18.3204 20.3376 18.8361 19.8448 19.3153L21.9365 21.4659C22.5843 20.8358 23.1519 20.1484 23.6362 19.404L21.1216 17.7679ZM21.9513 19.33L21.0724 18.4511L18.9511 20.5724L19.83 21.4513L21.9513 19.33ZM21.0724 20.5724C21.6419 20.0028 22.1473 19.3861 22.5866 18.7227L20.0853 17.0664C19.7589 17.5592 19.3815 18.0206 18.9511 18.4511L21.0724 20.5724ZM22.5866 18.7227C23.0224 18.0645 23.3918 17.3702 23.6942 16.6409L20.923 15.4919C20.6941 16.0439 20.4151 16.5683 20.0853 17.0664L22.5866 18.7227ZM23.6942 16.6409C23.9981 15.9079 24.2264 15.1517 24.3784 14.3736L21.4341 13.7983C21.3205 14.3796 21.1503 14.9436 20.923 15.4919L23.6942 16.6409ZM24.3784 14.3736C24.5291 13.6022 24.6083 12.816 24.6171 12.0165L21.6173 11.9835C21.6104 12.6058 21.549 13.2103 21.4341 13.7983L24.3784 14.3736ZM24.6172 12C24.6172 11.2018 24.5417 10.414 24.3901 9.63812L21.4458 10.2134C21.5598 10.7969 21.6172 11.392 21.6172 12H24.6172ZM24.3901 9.63812C24.2383 8.86113 24.0107 8.10303 23.7084 7.36499L20.9323 8.50219C21.1612 9.06103 21.332 9.63106 21.4458 10.2134L24.3901 9.63812ZM23.7084 7.36499C23.4051 6.62474 23.0335 5.92557 22.5931 5.26949L20.1022 6.94145C20.4275 7.426 20.7042 7.94557 20.9323 8.50219L23.7084 7.36499ZM22.5931 5.26949C22.1537 4.61489 21.6458 4.00105 21.0724 3.42762L18.9511 5.54894C19.3933 5.99114 19.776 6.45542 20.1022 6.94145L22.5931 5.26949ZM21.0724 5.54894L21.9513 4.67004L19.83 2.54871L18.9511 3.42762L21.0724 5.54894ZM3.92762 3.42762C3.35808 3.99717 2.85269 4.61389 2.41339 5.27732L4.91473 6.93361C5.24106 6.4408 5.61849 5.9794 6.04894 5.54894L3.92762 3.42762ZM2.41339 5.27732C1.98023 5.93149 1.60902 6.621 1.3001 7.34475L4.05927 8.52244C4.29723 7.96494 4.58227 7.43569 4.91473 6.93361L2.41339 5.27732ZM1.3001 7.34475C0.98348 8.08654 0.751987 8.85314 0.606772 9.64275L3.55729 10.1854C3.66208 9.61561 3.82902 9.06189 4.05927 8.52244L1.3001 7.34475ZM0.606772 9.64275C0.466891 10.4034 0.388788 11.1784 0.371456 11.967L3.37073 12.033C3.38465 11.3997 3.44717 10.7841 3.55729 10.1854L0.606772 9.64275ZM0.371094 12C0.371094 12.7982 0.446542 13.586 0.598154 14.3619L3.54247 13.7866C3.42846 13.2031 3.37109 12.608 3.37109 12H0.371094ZM0.598154 14.3619C0.751064 15.1444 0.984687 15.9073 1.29755 16.6492L4.06183 15.4836C3.82781 14.9286 3.65519 14.3634 3.54247 13.7866L0.598154 14.3619ZM1.29755 16.6492C1.60538 17.3792 1.97229 18.0697 2.39901 18.7186L4.90568 17.0704C4.5824 16.5788 4.30087 16.0504 4.06183 15.4836L1.29755 16.6492ZM2.39901 18.7186C2.83551 19.3825 3.34926 20.0028 3.93575 20.5804L6.04081 18.443C5.59605 18.005 5.21918 17.5472 4.90568 17.0704L2.39901 18.7186ZM3.92762 18.4511L3.04871 19.33L5.17004 21.4513L6.04894 20.5724L3.92762 18.4511ZM5.16259 19.3226C4.67276 18.8395 4.24301 18.318 3.87148 17.7574L1.37071 19.4145C1.85855 20.1507 2.42099 20.8323 3.05616 21.4587L5.16259 19.3226ZM3.87148 17.7574C3.4937 17.1873 3.17537 16.5914 2.91542 15.9689L0.147085 17.1249C0.48088 17.9242 0.889109 18.6877 1.37071 19.4145L3.87148 17.7574ZM2.91542 15.9689C2.65837 15.3533 2.4651 14.7131 2.33586 14.0465L-0.609298 14.6175C-0.441663 15.4822 -0.189624 16.3185 0.147085 17.1249L2.91542 15.9689ZM2.33586 14.0465C2.20492 13.3712 2.13576 12.6844 2.12883 11.9851L-0.87102 12.0149C-0.862319 12.8937 -0.775234 13.7617 -0.609298 14.6175L2.33586 14.0465ZM2.12891 12C2.12891 11.3056 2.19416 10.6239 2.32414 9.95347L-0.621017 9.38247C-0.787907 10.2433 -0.871094 11.1162 -0.871094 12H2.12891ZM2.32414 9.95347C2.45242 9.29181 2.6477 8.65597 2.90997 8.044L0.152532 6.86225C-0.194573 7.67216 -0.452422 8.51287 -0.621017 9.38247L2.32414 9.95347ZM2.90997 8.044C3.18077 7.41213 3.50343 6.80843 3.87841 6.23208L1.36377 4.59605C0.895004 5.31657 0.491105 6.07224 0.152532 6.86225L2.90997 8.044ZM3.87841 6.23208C4.23785 5.6796 4.66245 5.16392 5.1552 4.68466L3.06355 2.53409C2.41568 3.16421 1.84808 3.85165 1.36377 4.59605L3.87841 6.23208ZM3.04871 4.67004L3.92762 5.54894L6.04894 3.42762L5.17004 2.54871L3.04871 4.67004ZM16.6483 7.83987C17.2102 8.4081 17.631 9.04199 17.9218 9.74752L20.6954 8.60404C20.2519 7.52833 19.6101 6.56846 18.7814 5.73044L16.6483 7.83987ZM17.9218 9.74752C18.2136 10.4551 18.3648 11.2059 18.3711 12.0118L21.371 11.9882C21.3618 10.8097 21.138 9.67769 20.6954 8.60404L17.9218 9.74752ZM18.3711 12C18.3711 12.7926 18.2243 13.5355 17.9335 14.2408L20.7071 15.3842C21.1507 14.3083 21.3711 13.1761 21.3711 12H18.3711ZM17.9335 14.2408C17.6435 14.9442 17.2196 15.5824 16.6483 16.1601L18.7813 18.2696C19.6163 17.4254 20.2627 16.462 20.7071 15.3842L17.9335 14.2408ZM18.7755 16.1542L17.8966 15.2753L15.7753 17.3966L16.6542 18.2755L18.7755 16.1542ZM17.8966 17.3966C18.6124 16.6808 19.1662 15.8546 19.5478 14.9251L16.7725 13.7858C16.5447 14.3407 16.2157 14.8348 15.7753 15.2753L17.8966 17.3966ZM19.5478 14.9251C19.9272 14.0009 20.1193 13.0266 20.1288 12.0142L17.129 11.9858C17.1229 12.6296 17.0025 13.2257 16.7725 13.7858L19.5478 14.9251ZM20.1289 12C20.1289 10.9888 19.9401 10.0136 19.5595 9.0866L16.7843 10.2259C17.0131 10.7832 17.1289 11.3706 17.1289 12H20.1289ZM19.5595 9.0866C19.1769 8.15465 18.6182 7.32504 17.8966 6.6034L15.7753 8.72472C16.2255 9.17496 16.5575 9.67348 16.7843 10.2259L19.5595 9.0866ZM17.8966 8.72472L18.7755 7.84582L16.6542 5.7245L15.7753 6.6034L17.8966 8.72472ZM7.1034 6.6034C6.38761 7.3192 5.83378 8.14543 5.45222 9.07488L8.22747 10.2142C8.45528 9.65925 8.78427 9.16518 9.22472 8.72472L7.1034 6.6034ZM5.45222 9.07488C5.0728 9.99912 4.88071 10.9734 4.87116 11.9858L7.87103 12.0142C7.8771 11.3704 7.99752 10.7743 8.22747 10.2142L5.45222 9.07488ZM4.87109 12C4.87109 13.0112 5.05993 13.9864 5.4405 14.9134L8.21575 13.7741C7.98695 13.2168 7.87109 12.6294 7.87109 12H4.87109ZM5.4405 14.9134C5.82309 15.8454 6.38176 16.675 7.1034 17.3966L9.22472 15.2753C8.77449 14.825 8.44253 14.3265 8.21575 13.7741L5.4405 14.9134ZM7.1034 15.2753L6.2245 16.1542L8.34582 18.2755L9.22472 17.3966L7.1034 15.2753ZM8.35173 16.1601C7.78981 15.5919 7.36905 14.958 7.07817 14.2525L4.30464 15.396C4.74814 16.4717 5.38988 17.4315 6.21859 18.2696L8.35173 16.1601ZM7.07817 14.2525C6.78644 13.5449 6.63521 12.7941 6.62886 11.9882L3.62895 12.0118C3.63823 13.1903 3.862 14.3223 4.30464 15.396L7.07817 14.2525ZM6.62891 12C6.62891 11.2074 6.77568 10.4645 7.06645 9.75924L4.29292 8.61576C3.84932 9.69174 3.62891 10.8239 3.62891 12H6.62891ZM7.06645 9.75924C7.35648 9.05576 7.78037 8.41758 8.35166 7.83994L6.21865 5.73037C5.38369 6.57461 4.73727 7.53799 4.29292 8.61576L7.06645 9.75924ZM6.2245 7.84582L7.1034 8.72472L9.22472 6.6034L8.34582 5.7245L6.2245 7.84582Z" fill="#686868" mask="url(#path-1-inside-1_802_17198)"/>
</g>
<defs>
<clipPath id="clip0_802_17198">
<rect width="24" height="24" fill="white" transform="translate(0.5)"/>
</clipPath>
</defs>
</svg>
