<svg width="23" height="23" viewBox="0 0 23 23" fill="none" xmlns="http://www.w3.org/2000/svg">
<path d="M10.4827 8.50386H12.3716V6.61492H10.4827M11.4271 18.893C7.26202 18.893 3.87137 15.5024 3.87137 11.3373C3.87137 7.17216 7.26202 3.78152 11.4271 3.78152C15.5923 3.78152 18.9829 7.17216 18.9829 11.3373C18.9829 15.5024 15.5923 18.893 11.4271 18.893ZM11.4271 1.89258C10.1868 1.89258 8.95869 2.13687 7.81281 2.61151C6.66692 3.08615 5.62574 3.78184 4.74872 4.65886C2.97749 6.43008 1.98242 8.83238 1.98242 11.3373C1.98242 13.8421 2.97749 16.2444 4.74872 18.0157C5.62574 18.8927 6.66692 19.5884 7.81281 20.063C8.95869 20.5377 10.1868 20.7819 11.4271 20.7819C13.932 20.7819 16.3343 19.7869 18.1056 18.0157C19.8768 16.2444 20.8719 13.8421 20.8719 11.3373C20.8719 10.097 20.6276 8.86882 20.1529 7.72294C19.6783 6.57706 18.9826 5.53588 18.1056 4.65886C17.2286 3.78184 16.1874 3.08615 15.0415 2.61151C13.8956 2.13687 12.6674 1.89258 11.4271 1.89258ZM10.4827 16.0596H12.3716V10.3928H10.4827V16.0596Z" fill="black"/>
</svg>
