<svg width="23" height="29" viewBox="0 0 23 29" fill="none" xmlns="http://www.w3.org/2000/svg">
<path opacity="0.6" d="M11.0476 2.7619C14.0857 2.7619 16.5714 5.24762 16.5714 8.28571C16.5714 11.1857 13.6714 15.881 11.0476 19.1952C8.42381 15.7429 5.52381 11.1857 5.52381 8.28571C5.52381 5.24762 8.00952 2.7619 11.0476 2.7619ZM11.0476 0C6.49048 0 2.7619 3.72857 2.7619 8.28571C2.7619 14.5 11.0476 23.4762 11.0476 23.4762C11.0476 23.4762 19.3333 14.3619 19.3333 8.28571C19.3333 3.72857 15.6048 0 11.0476 0ZM11.0476 5.52381C9.52857 5.52381 8.28571 6.76667 8.28571 8.28571C8.28571 9.80476 9.52857 11.0476 11.0476 11.0476C12.5667 11.0476 13.8095 9.80476 13.8095 8.28571C13.8095 6.76667 12.5667 5.52381 11.0476 5.52381ZM22.0952 23.4762C22.0952 26.5143 17.1238 29 11.0476 29C4.97143 29 0 26.5143 0 23.4762C0 21.681 1.65714 20.1619 4.28095 19.0571L5.10952 20.3C3.72857 20.9905 2.7619 21.819 2.7619 22.7857C2.7619 24.719 6.49048 26.2381 11.0476 26.2381C15.6048 26.2381 19.3333 24.719 19.3333 22.7857C19.3333 21.819 18.3667 20.9905 16.8476 20.3L17.6762 19.0571C20.4381 20.1619 22.0952 21.681 22.0952 23.4762Z" fill="black"/>
</svg>
