<svg width="23" height="24" viewBox="0 0 23 24" fill="none" xmlns="http://www.w3.org/2000/svg">
<path d="M10.0872 2.80233C9.11069 2.80233 8.17417 3.19568 7.48366 3.89583C6.79316 4.59598 6.40523 5.54559 6.40523 6.53576C6.40523 7.52593 6.79316 8.47554 7.48366 9.17569C8.17417 9.87585 9.11069 10.2692 10.0872 10.2692C11.0637 10.2692 12.0003 9.87585 12.6908 9.17569C13.3813 8.47554 13.7692 7.52593 13.7692 6.53576C13.7692 5.54559 13.3813 4.59598 12.6908 3.89583C12.0003 3.19568 11.0637 2.80233 10.0872 2.80233ZM4.30124 6.53576C4.30124 4.97978 4.91083 3.48754 5.99591 2.3873C7.081 1.28705 8.55268 0.668945 10.0872 0.668945C11.6218 0.668945 13.0934 1.28705 14.1785 2.3873C15.2636 3.48754 15.8732 4.97978 15.8732 6.53576C15.8732 8.09174 15.2636 9.58399 14.1785 10.6842C13.0934 11.7845 11.6218 12.4026 10.0872 12.4026C8.55268 12.4026 7.081 11.7845 5.99591 10.6842C4.91083 9.58399 4.30124 8.09174 4.30124 6.53576ZM6.40523 15.6027C5.28921 15.6027 4.21889 16.0522 3.42974 16.8524C2.64059 17.6525 2.19725 18.7378 2.19725 19.8694H10.6658V22.0028H0.0932617V19.8694C0.0932617 18.172 0.758271 16.5441 1.942 15.3438C3.12572 14.1436 4.73119 13.4693 6.40523 13.4693H10.6132V15.6027H6.40523ZM18.5032 12.1359V13.6037C19.2554 13.7999 19.9255 14.201 20.4536 14.7472L21.7086 14.0122L22.7606 15.8597L21.5066 16.5936C21.7111 17.3411 21.7111 18.131 21.5066 18.8785L22.7606 19.6124L21.7086 21.4599L20.4536 20.7249C19.918 21.2788 19.2437 21.6741 18.5032 21.8684V23.3362H16.3992V21.8684C15.6586 21.6743 14.9842 21.2789 14.4488 20.7249L13.1938 21.4599L12.1418 19.6124L13.3957 18.8785C13.1911 18.131 13.1911 17.3411 13.3957 16.5936L12.1418 15.8597L13.1938 14.0122L14.4488 14.7461C14.9843 14.1925 15.6587 13.7975 16.3992 13.6037V12.1359H18.5032ZM15.6091 16.7046C15.4365 17.0201 15.3459 17.3751 15.3461 17.736C15.3461 18.1094 15.4419 18.4614 15.6091 18.7675L15.647 18.8347C15.8337 19.1509 16.0981 19.4126 16.4143 19.5943C16.7305 19.776 17.0877 19.8715 17.4512 19.8715C17.8146 19.8715 18.1719 19.776 18.4881 19.5943C18.8043 19.4126 19.0686 19.1509 19.2554 18.8347L19.2932 18.7675C19.4605 18.4614 19.5552 18.1105 19.5552 17.736C19.5552 17.3627 19.4605 17.0107 19.2932 16.7046L19.2554 16.6374C19.0686 16.3212 18.8043 16.0595 18.4881 15.8778C18.1719 15.6961 17.8146 15.6005 17.4512 15.6005C17.0877 15.6005 16.7305 15.6961 16.4143 15.8778C16.0981 16.0595 15.8337 16.3212 15.647 16.6374L15.6091 16.7046Z" fill="black"/>
</svg>
