<svg width="23" height="24" viewBox="0 0 23 24" fill="none" xmlns="http://www.w3.org/2000/svg">
<path d="M9.1602 10.2111C11.6649 10.2111 13.6937 8.0756 13.6937 5.43904C13.6937 2.80249 11.6649 0.666992 9.1602 0.666992C6.65546 0.666992 4.62673 2.80249 4.62673 5.43904C4.62673 8.0756 6.65546 10.2111 9.1602 10.2111ZM9.1602 3.05302C9.76137 3.05302 10.3379 3.3044 10.763 3.75187C11.1881 4.19934 11.4269 4.80623 11.4269 5.43904C11.4269 6.07186 11.1881 6.67875 10.763 7.12622C10.3379 7.57368 9.76137 7.82507 9.1602 7.82507C7.90216 7.82507 6.89346 6.76329 6.89346 5.43904C6.89346 4.1148 7.91349 3.05302 9.1602 3.05302ZM11.4269 19.7552H0.0932617V16.1762C0.0932617 12.9908 6.13411 11.4041 9.1602 11.4041C10.2936 11.4041 11.8576 11.6308 13.365 12.0722C13.025 12.7403 12.821 13.48 12.7983 14.2554C11.6876 13.9094 10.4182 13.6708 9.1602 13.6708C5.7941 13.6708 2.24666 15.4126 2.24666 16.1762V17.4885H11.4269V19.7552ZM21.4006 16.1762V14.3866C21.4006 12.7164 19.8138 11.4041 18.2271 11.4041C16.6404 11.4041 15.0537 12.7164 15.0537 14.3866V16.1762C14.3737 16.1762 13.6937 16.892 13.6937 17.6078V21.7833C13.6937 22.6184 14.3737 23.3342 15.0537 23.3342H21.2872C22.0806 23.3342 22.7606 22.6184 22.7606 21.9026V17.7271C22.7606 16.892 22.0806 16.1762 21.4006 16.1762ZM19.9272 16.1762H16.5271V14.3866C16.5271 13.4322 17.3204 12.8357 18.2271 12.8357C19.1338 12.8357 19.9272 13.4322 19.9272 14.3866V16.1762Z" fill="black"/>
</svg>
