<svg width="19" height="12" viewBox="0 0 19 12" fill="none" xmlns="http://www.w3.org/2000/svg">
<path d="M13.25 2V1.25H12.5H2.5H1.75V2V10V10.75H2.5H12.5H13.25V10V2ZM15.0303 6.96967L14.0607 6L15.0303 5.03033L17.75 2.31066V9.68934L15.0303 6.96967ZM13.75 6.31066V7.5V11C13.75 11.0663 13.7237 11.1299 13.6768 11.1768C13.6299 11.2237 13.5663 11.25 13.5 11.25H1.5C1.43369 11.25 1.37011 11.2237 1.32322 11.1768C1.27634 11.1299 1.25 11.0663 1.25 11V1C1.25 0.933696 1.27634 0.870108 1.32322 0.823224C1.37011 0.776339 1.4337 0.75 1.5 0.75H13.5C13.5663 0.75 13.6299 0.77634 13.6768 0.823223C13.7237 0.870107 13.75 0.933695 13.75 1V4.5V5.68934V6.31066Z" stroke="#686868" stroke-width="1.5"/>
</svg>
