<svg width="18" height="19" viewBox="0 0 18 19" fill="none" xmlns="http://www.w3.org/2000/svg">
<path d="M9.19553 1.21794L9.19554 1.21792C9.48929 0.881565 9.88572 0.836606 10.2066 1.0064C10.5237 1.17417 10.7567 1.54489 10.7567 2.01985V16.9802C10.7567 17.4551 10.5238 17.8258 10.2068 17.9936C9.88604 18.1634 9.48964 18.1184 9.19558 17.7821L9.19555 17.7821L5.90428 14.0148L9.19553 1.21794ZM9.19553 1.21794L5.90422 4.98853C5.90421 4.98854 5.9042 4.98855 5.90419 4.98856C5.70292 5.21893 5.44141 5.34303 5.17402 5.34295H5.174M9.19553 1.21794L5.174 5.34295M5.174 5.34295H3.16667M5.174 5.34295H3.16667M17.09 9.50082C17.0931 6.86064 16.3061 4.30805 14.8743 2.32388L14.8743 2.32386L14.8728 2.32189C14.7704 2.1879 14.6252 2.10312 14.4659 2.09354C14.3063 2.08394 14.1537 2.15112 14.0399 2.27339C13.9266 2.39509 13.8591 2.56262 13.8476 2.73928C13.8362 2.91598 13.8812 3.09309 13.9761 3.23326L13.9761 3.23328L13.9777 3.23546C15.2249 4.96366 15.9131 7.19198 15.91 9.50069V9.50082C15.91 11.9035 15.1804 14.0948 13.9783 15.7644C13.926 15.8331 13.8862 15.913 13.8604 15.999C13.8344 16.0855 13.8231 16.1771 13.8268 16.2686C13.8305 16.36 13.8491 16.45 13.882 16.5333C13.9149 16.6166 13.9616 16.6921 14.0201 16.7549C14.0786 16.8178 14.1479 16.8668 14.2245 16.8979C14.3011 16.929 14.3828 16.9413 14.4643 16.9334C14.5458 16.9255 14.6242 16.8977 14.695 16.8528C14.7652 16.8082 14.8262 16.7477 14.8751 16.6759C16.3061 14.692 17.0928 12.1402 17.09 9.50082ZM17.09 9.50082C17.09 9.50086 17.09 9.50089 17.09 9.50092L17 9.50082L17.09 9.50072C17.09 9.50075 17.09 9.50079 17.09 9.50082ZM14.59 9.50082C14.5921 7.81205 14.1441 6.16694 13.312 4.81409L13.3127 4.81366L13.3084 4.80845C13.2644 4.736 13.2086 4.67346 13.1433 4.62506C13.0762 4.57527 13.0006 4.54149 12.9206 4.52682C12.8406 4.51213 12.759 4.5171 12.681 4.54121C12.603 4.56528 12.531 4.60769 12.4689 4.66476C12.4067 4.72179 12.3555 4.79242 12.3174 4.8719C12.2793 4.95139 12.2549 5.03868 12.245 5.12869C12.2352 5.2187 12.2401 5.31024 12.2595 5.39816C12.2789 5.48581 12.3125 5.5687 12.359 5.64189C13.0424 6.75292 13.412 8.10753 13.41 9.50069V9.50082C13.41 10.9506 13.0183 12.2861 12.3586 13.3603L12.3586 13.3603C12.3135 13.4338 12.2812 13.5166 12.2629 13.6038C12.2446 13.6911 12.2406 13.7818 12.251 13.8707C12.2614 13.9597 12.2861 14.0459 12.3241 14.1244C12.3621 14.2028 12.413 14.2725 12.4745 14.3289C12.5361 14.3853 12.6073 14.4274 12.6844 14.4515C12.7615 14.4756 12.8422 14.4811 12.9215 14.4672C13.0007 14.4534 13.0759 14.4208 13.1428 14.3724C13.2097 14.3241 13.2669 14.261 13.312 14.1875C14.1441 12.8347 14.592 11.1896 14.59 9.50082ZM14.59 9.50082C14.59 9.50085 14.59 9.50089 14.59 9.50093L14.5 9.50082L14.59 9.50071C14.59 9.50074 14.59 9.50078 14.59 9.50082ZM3.16667 5.34295C2.56168 5.34295 1.98613 5.63666 1.56496 6.15115M3.16667 5.34295L1.56496 6.15115M1.56496 6.15115C1.1442 6.66515 0.91 7.35905 0.91 8.07971M1.56496 6.15115L0.91 8.07971M0.91 8.07971V10.9236M0.91 8.07971V10.9236M0.91 10.9236C0.91 11.6442 1.1442 12.3381 1.56496 12.8521M0.91 10.9236L1.56496 12.8521M1.56496 12.8521C1.98613 13.3666 2.56168 13.6603 3.16667 13.6603M1.56496 12.8521L3.16667 13.6603M3.16667 13.6603H5.17466M3.16667 13.6603H5.17466M5.17466 13.6603C5.44154 13.6603 5.70312 13.785 5.90422 14.0147L5.17466 13.6603ZM5.17403 6.74371C5.68316 6.74355 6.17228 6.53529 6.566 6.16106V6.17868L6.72381 5.99786L9.57666 2.72893V16.2696L6.72378 13.0037L6.72376 13.0037C6.30721 12.5271 5.75383 12.2579 5.17465 12.2579H3.16667C2.88759 12.2579 2.6153 12.1226 2.41135 11.8735C2.20699 11.6238 2.09 11.282 2.09 10.9227V8.07889C2.09 7.32422 2.58838 6.74371 3.16667 6.74371H5.174H5.17403Z" fill="black" stroke="black" stroke-width="0.18"/>
</svg>
